<svg xmlns="http://www.w3.org/2000/svg" width="18" height="17.998" viewBox="0 0 18 17.998">
  <path id="megaphone" d="M17.249,12a.75.75,0,0,1-.334-.079l-1.5-.75a.75.75,0,1,1,.67-1.342l1.5.75A.75.75,0,0,1,17.249,12ZM16.084,5.175l1.5-.75a.75.75,0,0,0-.67-1.342l-1.5.75a.75.75,0,1,0,.67,1.342ZM18,7.5a.75.75,0,0,0-.75-.75h-1.5a.75.75,0,1,0,0,1.5h1.5A.75.75,0,0,0,18,7.5Zm-4.5,6.749V.75a.75.75,0,0,0-1.5,0c0,2.212-1.937,3-3.75,3H3a3,3,0,0,0-3,3v1.5a3,3,0,0,0,3,3h5.25c1.813,0,3.75.788,3.75,3a.75.75,0,0,0,1.5,0Zm-7.36-1.5H3a4.5,4.5,0,0,1-1.036-.125L3.838,16.81A2,2,0,0,0,5.668,18a1.846,1.846,0,0,0,1.681-2.6Z" fill="#de5926"/>
</svg>
