<svg xmlns="http://www.w3.org/2000/svg" width="1570.617" height="322.733" viewBox="0 0 1570.617 322.733">
  <g id="Group_3954" data-name="Group 3954" transform="translate(-62.744 -40)">
    <g id="Group_3951" data-name="Group 3951" transform="translate(62.744 40)">
      <g id="Group_3071" data-name="Group 3071" transform="translate(30.337 21.067)">
        <path id="Path_5436" data-name="Path 5436" d="M216.4,303.167c-38.785-.653-72.2-14.487-99.716-41.783A134.114,134.114,0,0,1,78.09,187.118C70.643,142.9,81.87,103.6,111.379,69.791c21.24-24.329,48.145-39.265,79.773-45.114a145.641,145.641,0,0,1,36.06-1.735C255.665,24.8,280.76,34.5,303.391,51.367c7.27,5.429,13.588,11.9,19.9,18.387,1.838,1.884,1.353,2.995-.289,4.543A138.077,138.077,0,0,0,312.76,84.567c-3,3.48-4.927,3.8-8.315.065C288.114,66.6,268.133,54.314,244.252,49.109c-39.5-8.62-74.854.028-105.427,26.708C119.274,92.879,107.2,114.382,102,139.793c-7.783,38.089,2.678,71.178,27.4,100.386,13.551,16.008,30.974,26.54,50.376,33.546a105,105,0,0,0,46.783,5.793c30.134-3.162,56.171-15.262,77.029-37.669,4.34-4.664,4.423-4.6,8.978-.047,3.313,3.3,6.57,6.67,9.967,9.879,1.764,1.66,1.689,2.892.047,4.655-21.464,23-47.175,38.294-78.4,44.069a138.2,138.2,0,0,1-27.792,2.761Z" transform="translate(-75.86 -22.553)" fill="#325a9c" fill-rule="evenodd"/>
        <path id="Path_5437" data-name="Path 5437" d="M221.332,260.434c-29.052-.382-52.952-11.873-72.26-33.381-1.661-1.856-1.474-2.91.205-4.561q16.672-16.411,33.13-33.027c1.717-1.735,2.818-1.847,4.517-.028q5.291,5.624,10.937,10.894c2.109,1.968,2.025,3.339-.037,5.316-5.618,5.391-10.993,11.052-16.63,16.443-2.072,1.977-1.81,2.863.5,4.384a73.018,73.018,0,0,0,78.2,1.455c4.769-2.873,4.75-3.059.812-6.977q-54.776-54.395-109.552-108.771c-4.619-4.589-4.554-4.542-.131-9.355,14.941-16.294,33.186-26.955,55.061-30.135,34.026-4.934,63.236,5.046,87.08,30.145,2.949,3.115,3,5.074-.28,8.208-10.723,10.213-21.147,20.753-31.515,31.329-2.277,2.332-3.658,3.1-6.122.187a116.735,116.735,0,0,0-10.237-10.26c-1.932-1.772-2-2.882-.047-4.747,5.973-5.708,11.665-11.705,17.647-17.413,2.044-1.949,2.417-2.975-.261-4.71a73.477,73.477,0,0,0-80.286-.289c-3.584,2.294-2.912,3.619-.392,6.128q54.776,54.409,109.412,108.948c5.4,5.382,5.413,5.41.075,10.866A95.449,95.449,0,0,1,236.179,259.5a43.429,43.429,0,0,1-4.545.886c-3.425.131-6.859.047-10.294.047Z" transform="translate(-80.656 -25.819)" fill="#de5926" fill-rule="evenodd"/>
      </g>
      <g id="Group_3072" data-name="Group 3072">
        <path id="Path_5438" data-name="Path 5438" d="M50.889,196.1c-.159-1.176-.3-2.361-.439-3.546l3.528-.411c.131,1.167.28,2.333.429,3.49l-3.518.467Z" transform="translate(-43.824 -12.871)" fill="#6d6e73"/>
        <path id="Path_5439" data-name="Path 5439" d="M211.128,322.714q-3.637-.028-7.236-.215l.189-3.545c2.34.121,4.708.2,7.076.215Zm7.245-.1-.123-3.545q3.552-.126,7.066-.4l.283,3.536c-2.387.187-4.8.327-7.217.4Zm-21.7-.644q-3.623-.35-7.189-.849l.5-3.508c2.33.327,4.67.6,7.028.83Zm36.114-.485-.434-3.517q3.538-.434,7-1.017l.6,3.5c-2.368.392-4.755.746-7.17,1.035Zm-50.444-1.521c-2.377-.438-4.745-.933-7.085-1.474l.811-3.452q3.439.8,6.934,1.437l-.66,3.489Zm64.718-.868-.755-3.47c2.311-.494,4.613-1.036,6.887-1.623l.906,3.424c-2.33.606-4.67,1.157-7.038,1.661Zm-78.822-2.388c-2.33-.644-4.642-1.353-6.925-2.09l1.123-3.368c2.236.728,4.5,1.409,6.774,2.043l-.972,3.414Zm92.813-1.241-1.066-3.387q3.4-1.036,6.708-2.23l1.217,3.331q-3.4,1.218-6.868,2.276ZM154.5,312.218q-3.382-1.273-6.708-2.7l1.425-3.256q3.255,1.385,6.566,2.64l-1.274,3.312ZM274.657,310.6l-1.368-3.284q3.269-1.329,6.472-2.8l1.509,3.219c-2.179,1-4.387,1.959-6.613,2.864ZM141.2,306.537q-3.269-1.567-6.434-3.275l1.708-3.116c2.075,1.11,4.17,2.183,6.3,3.2l-1.566,3.191Zm146.549-1.95-1.651-3.153c2.094-1.073,4.16-2.2,6.2-3.359l1.792,3.069Q290.964,302.936,287.752,304.587Zm-159.266-4.879q-3.1-1.847-6.113-3.825l1.981-2.957q2.958,1.931,5.981,3.75l-1.849,3.032Zm171.776-2.276-1.925-2.985c1.991-1.259,3.953-2.556,5.868-3.89l2.066,2.9q-2.958,2.057-6.009,3.984Zm-183.833-5.644q-2.929-2.113-5.755-4.347l2.245-2.771q2.759,2.183,5.623,4.254ZM312.092,289.2,309.9,286.4q2.8-2.141,5.509-4.394l2.311,2.705Q314.964,287.016,312.092,289.2Zm11.057-9.227-2.434-2.6c1.736-1.586,3.434-3.2,5.094-4.861l2.538,2.5q-2.547,2.533-5.208,4.972Zm10.189-10.159-2.651-2.388q2.377-2.589,4.642-5.29l2.755,2.267q-2.321,2.757-4.755,5.4Zm9.255-11.008-2.858-2.146c1.425-1.866,2.811-3.75,4.16-5.672l2.943,2.015Q344.771,255.959,342.592,258.809Zm8.236-11.783-3.038-1.884q1.882-2.967,3.632-6.017l3.123,1.754C353.356,242.958,352.111,245.011,350.828,247.026Zm7.151-12.464-3.2-1.614c1.076-2.08,2.094-4.179,3.076-6.316l3.264,1.465C360.121,230.28,359.064,232.435,357.979,234.562Zm6-13.052-3.321-1.325q1.316-3.247,2.5-6.568l3.387,1.175q-1.2,3.4-2.557,6.717Zm4.8-13.546-3.434-1.026q1.019-3.345,1.887-6.745l3.472.868q-.892,3.484-1.934,6.894Zm3.557-13.872-3.509-.718q.708-3.414,1.264-6.885l3.547.56c-.387,2.36-.821,4.711-1.3,7.034Zm2.283-14.124-3.566-.41q.41-3.456.651-6.969l3.576.252q-.255,3.582-.67,7.128ZM49.739,172.523q-.241-3.554-.33-7.146l3.585-.084c.066,2.351.17,4.674.33,7l-3.576.243Zm325.91-6.829-3.585-.093c.038-1.409.057-2.827.057-4.245,0-.924,0-1.838-.028-2.752l3.585-.065q.028,1.413.028,2.827,0,2.169-.057,4.338ZM52.975,158.287l-3.585-.065q.071-3.6.3-7.146l3.576.224Q53.041,154.77,52.975,158.287ZM371.819,151.6c-.142-2.332-.34-4.665-.585-6.969l3.566-.373q.382,3.54.594,7.137l-3.575.215ZM53.862,144.321l-3.566-.373q.4-3.568.934-7.1l3.547.532c-.349,2.295-.66,4.609-.906,6.941Zm316.467-6.633c-.349-2.314-.755-4.618-1.208-6.894l3.519-.681q.693,3.5,1.236,7.053l-3.547.532Zm-314.334-7.2-3.519-.69c.472-2.351.991-4.674,1.566-6.988l3.481.849Q56.687,127.043,55.994,130.486Zm311.608-6.53c-.557-2.267-1.17-4.525-1.821-6.764l3.443-.989q1,3.428,1.868,6.913l-3.491.83ZM59.362,116.9l-3.434-1c.679-2.295,1.406-4.571,2.2-6.82l3.387,1.157q-1.146,3.3-2.142,6.67Zm304.287-6.381c-.755-2.211-1.576-4.4-2.424-6.577l3.34-1.287c.877,2.22,1.7,4.459,2.491,6.717l-3.4,1.147ZM63.956,103.637l-3.34-1.3q1.33-3.345,2.811-6.614L66.7,97.171q-1.443,3.191-2.736,6.465ZM358.507,97.5q-1.443-3.2-3.01-6.325l3.217-1.577q1.6,3.191,3.076,6.465l-3.283,1.446ZM69.72,90.828l-3.208-1.586c1.085-2.136,2.217-4.254,3.4-6.335l3.132,1.726c-1.142,2.034-2.255,4.1-3.311,6.195Zm282.494-5.84c-1.142-2.043-2.33-4.049-3.566-6.045l3.066-1.847c1.255,2.024,2.472,4.086,3.642,6.167l-3.142,1.726ZM76.626,78.578,73.57,76.713q1.91-3.051,3.943-6.008l2.962,2q-2,2.9-3.859,5.877Zm268.2-5.514q-1.981-2.9-4.094-5.709l2.877-2.118c1.434,1.912,2.83,3.862,4.189,5.831l-2.972,1.987ZM84.6,66.992l-2.877-2.127Q83.886,62,86.183,59.22l2.774,2.248q-2.25,2.715-4.368,5.514ZM336.4,61.832c-1.491-1.81-3.019-3.592-4.585-5.327l2.679-2.351q2.392,2.673,4.689,5.448L336.4,61.842ZM93.57,56.151l-2.679-2.36c1.6-1.782,3.264-3.526,4.943-5.224L98.4,51.048c-1.651,1.67-3.264,3.368-4.83,5.112ZM327,51.374c-1.651-1.67-3.33-3.312-5.047-4.907l2.462-2.584c1.764,1.633,3.481,3.312,5.16,5.019l-2.566,2.472ZM103.466,46.141l-2.453-2.584q2.646-2.449,5.387-4.777l2.33,2.7c-1.792,1.521-3.557,3.079-5.274,4.665ZM316.7,41.775q-2.689-2.281-5.462-4.45l2.217-2.789c1.9,1.483,3.764,2.995,5.585,4.553ZM114.212,37.036l-2.217-2.789q2.844-2.211,5.8-4.282l2.076,2.892q-2.887,2.029-5.66,4.189Zm191.371-3.928c-1.924-1.362-3.868-2.677-5.849-3.965l1.962-2.967q3.028,1.959,5.972,4.049Zm-179.861-4.2-1.953-2.976q3.028-1.945,6.151-3.76l1.811,3.06C129.7,26.419,127.693,27.641,125.721,28.91Zm167.993-3.47c-2.028-1.185-4.094-2.332-6.179-3.433l1.689-3.135c2.132,1.129,4.236,2.295,6.321,3.517ZM137.9,21.82l-1.679-3.135c2.123-1.11,4.283-2.183,6.462-3.2l1.538,3.2q-3.2,1.5-6.311,3.135Zm143.313-2.976c-2.132-1.008-4.283-1.968-6.472-2.883l1.406-3.265c2.236.933,4.434,1.922,6.613,2.948ZM150.665,15.83l-1.4-3.265c2.208-.924,4.453-1.791,6.717-2.621l1.245,3.331c-2.217.8-4.4,1.661-6.566,2.566Zm117.483-2.454q-3.311-1.217-6.708-2.295l1.1-3.377q3.467,1.106,6.859,2.351l-1.255,3.321ZM163.92,10.988l-1.094-3.377c2.293-.728,4.613-1.4,6.944-2.024l.934,3.424Q167.278,9.92,163.92,10.988Zm90.756-1.9C252.4,8.479,250.11,7.91,247.8,7.4l.792-3.461q3.538.784,7.028,1.726Zm-77.1-1.754L176.8,3.87q3.524-.784,7.094-1.409l.623,3.489q-3.5.616-6.934,1.371Zm63.284-1.325c-2.321-.41-4.642-.765-6.991-1.082l.472-3.517q3.594.476,7.151,1.1L240.864,6Zm-49.35-1.12-.472-3.517q3.58-.462,7.2-.774l.311,3.536Q195.015,4.439,191.515,4.887Zm35.321-.737c-2.34-.205-4.689-.364-7.066-.466l.16-3.545q3.637.168,7.217.476Zm-21.217-.476L205.468.129c2.34-.1,4.708-.149,7.085-.149l.151,3.545C210.232,3.525,207.92,3.572,205.619,3.674Z" transform="translate(-43.753 0.02)" fill="#6d6e73"/>
        <path id="Path_5440" data-name="Path 5440" d="M107.879,302.451c-.9-.793-1.792-1.587-2.669-2.4l2.408-2.613c.859.793,1.727,1.577,2.6,2.342l-2.342,2.66Z" transform="translate(-47.48 -19.949)" fill="#6d6e73"/>
        <path id="Path_5441" data-name="Path 5441" d="M53.979,206.277c1.083-5.263,3.294-11.917,6.047-16.257l-7.876,4.293-8.8-1.745c3.92,3.322,8.016,9.015,10.63,13.719Z" transform="translate(-43.35 -12.732)" fill="#6d6e73"/>
        <path id="Path_5442" data-name="Path 5442" d="M102.2,282.04l4.4,16.714-16.789-4.1Z" transform="translate(-46.452 -18.921)" fill="#6d6e73"/>
      </g>
    </g>
    <g id="Group_3075" data-name="Group 3075" transform="translate(440.803 113.767)">
      <g id="Group_3073" data-name="Group 3073" transform="translate(0 15.273)">
        <path id="Path_5443" data-name="Path 5443" d="M105.976,482.791,94.919,509.669a81.583,81.583,0,0,1-27.425,5.008q-31.448,0-49.676-19.542Q0,476.168,0,444.528q0-34.486,20.609-55.561T75.678,367.92c11.3,0,20.336,1.013,27.151,3.038l-1.423,32.734c-6.487-5.83-11.222-9.634-14.178-11.331A34.062,34.062,0,0,0,69.738,387.9q-19.337,0-30.682,15.519-10.017,13.958-10.017,34.075c0,15.519,3.449,28.246,10.318,38.1q11.906,16.832,34.1,16.832,15.067,0,32.543-9.634Z" transform="translate(0 -367.893)" fill="#325a9c"/>
        <path id="Path_5444" data-name="Path 5444" d="M176.066,437.832q0,31.037-18.091,53.125-19.255,23.689-49.676,23.7-28.574,0-46.666-21.239Q44.39,473.3,44.39,444.319q0-32.146,18.393-53.7,19.542-22.7,51.264-22.689,28.574,0,45.954,21.1,16.093,19.665,16.093,48.828Zm-29.012,6.9a67.394,67.394,0,0,0-10.866-37.524Q123.749,388.033,104,388.019c-1.341,0-3.394.137-6.158.438Q73.252,400.9,73.238,434.849A75.281,75.281,0,0,0,84.1,474.508q12.727,21.061,32.625,20.062l6.3-.274q24.017-16.052,24.031-49.539Z" transform="translate(77.105 -367.875)" fill="#325a9c"/>
        <path id="Path_5445" data-name="Path 5445" d="M296.939,511.649H257.581a134.64,134.64,0,0,0,5.611-39.823V422.67q0-13.959-3.449-19.98-4.886-8.334-18.228-8.348-12.645,0-29.149,11.331V481.3q0,11.372,5.611,30.326H178.619q5.583-13.384,5.611-38.1V426.091c0-10.647-.9-18.009-2.737-22.142q-4.434-9.648-18.392-9.634-11.619,0-29.724,11.057l.137,67.877q0,23.155,5.447,38.4H99.63q5.583-18.1,5.611-42.067V421.055q0-31.448-5.611-50.114h33.747v27.151q16.832-19.542,19.131-21.54,10.223-8.622,25.317-8.621,27.753,0,33.528,31.311l20.719-22.005a39.679,39.679,0,0,1,26.33-9.278c13.63,0,22.909,5.638,27.917,16.942q5.05,11.331,5.036,34.458,0,63.758-.274,46.666.575,26.44,5.884,45.653Z" transform="translate(173.056 -367.875)" fill="#325a9c"/>
        <path id="Path_5446" data-name="Path 5446" d="M303.959,445.729q0,29.6-11.194,47.369-13.466,21.55-41.438,21.536-19.378,0-36.84-14.066v19.813a105.4,105.4,0,0,0,5.611,35.027H180.74q5.584-18.513,5.611-43.209V414.15q0-23.849-5.611-43.21h33.747v24.41q8.334-9.769,16.668-19.375,8.745-8.045,22.06-8.045,26.234,0,39.987,27.283,10.756,21.55,10.756,50.543Zm-29.012-5.747q0-16.994-7.718-30.1-9.155-15.557-24.715-15.543-11.865,0-28,8.62V479.47q10.428,12.93,25.016,12.944,35.43,0,35.444-52.4Z" transform="translate(313.942 -367.875)" fill="#325a9c"/>
        <path id="Path_5447" data-name="Path 5447" d="M312.567,474.088q0,19.5-15.081,30.545-13.507,10.058-33.61,10.045-9.771,0-32.3-4.9V474.772q19.747,19.829,33.227,19.816a19.479,19.479,0,0,0,13.11-4.872,15.588,15.588,0,0,0,5.666-12.344q0-8.745-12.59-19.515c-15.382-12.919-23.182-19.542-23.483-19.925q-12.727-13.466-12.727-28.984,0-18.228,15.218-30.134,13.917-10.879,32.734-10.893,12.357,0,26.412,5.474v27.4q-14.739-12.768-25.919-12.782a21.9,21.9,0,0,0-13.165,4.023,14.146,14.146,0,0,0-6.3,11.906q0,9.483,12.59,20.363l23.483,20.089q12.727,13.466,12.754,29.7Z" transform="translate(402.251 -367.893)" fill="#de5926"/>
        <path id="Path_5448" data-name="Path 5448" d="M375.211,430.679l-.274,14.369H296.112q6.158,47.377,43.709,47.377,14.328,0,32.105-7.746l-10.62,25.865q-16.381,4.146-26.85,4.133-31.859,0-49.977-20.527-17.366-19.542-17.38-51.7,0-29.847,13.931-50.689,16.094-23.853,44.531-23.839,25.125,0,38.482,19.679,11.783,17.079,11.194,43.08Zm-23.538-9.88c.274-8.649-1.943-16.093-6.706-22.361a23.87,23.87,0,0,0-20.281-10.4q-14,0-21.568,11.96-6.281,10.1-6.295,24.934h54.712Z" transform="translate(463.948 -367.893)" fill="#de5926"/>
        <path id="Path_5449" data-name="Path 5449" d="M436.165,555.409H396.971q5.46-10.467,5.447-34.015v-33.44l-20.965,23.26a50,50,0,0,1-16.914,3.448q-25.208,0-39.112-19.1-12.316-17.076-12.317-43.073,0-42.361,26.576-64.308,24.715-20.236,67.8-20.25a221.642,221.642,0,0,1,28.711,2.3q-5.461,18.8-5.447,33.6V504.345q0,32.3,5.447,51.118Zm-33.747-76.376V390.451q-10.428-2.422-16.586-2.436-22.991,0-34.158,16.665-9.73,14.367-9.716,38.612,0,18.677,6.706,30.43,8.416,14.49,25.427,14.5,10.592,0,28.3-9.195Z" transform="translate(543.867 -367.875)" fill="#de5926"/>
        <path id="Path_5450" data-name="Path 5450" d="M454.4,370.674l-5.885,30.572q-10.018-6.9-19.487-6.9c-6.323,0-15.957,3.147-28.355,9.47v65.77a154.294,154.294,0,0,0,5.611,42.067H366.93q5.583-20.24,5.611-35.17V420.761q0-29.149-5.611-49.84h33.747v25.426L422.6,371.933q10.756-4.023,18.748-4.023a33.539,33.539,0,0,1,13.028,2.737Z" transform="translate(637.351 -367.91)" fill="#de5926"/>
      </g>
      <g id="Group_3074" data-name="Group 3074" transform="translate(1110.693 0)">
        <path id="Path_5451" data-name="Path 5451" d="M458.005,407.215q13.055,0,24.824,14.068,4.845,5.747,4.844,15.656a25.959,25.959,0,0,1-7.061,18.475q-6.569-2.5-14.068-4.762v-2.737q8.252-3.12,8.238-14.013a17.739,17.739,0,0,0-2.162-8.868q-3.859-6.856-9.99-6.842c-4.078,0-7.226,1.779-9.662,5.364a19.063,19.063,0,0,0-3.148,10.948,30.456,30.456,0,0,0,.766,6.541l-1.752,1.259-8.95-2.737a20.79,20.79,0,0,0-3.312-10.455c-2.3-3.64-5.173-5.474-8.594-5.474-6.706,0-10.154,3.914-10.4,11.769a17.511,17.511,0,0,0,4.817,12.481l-.848,2.162-12.043-3.011a34.81,34.81,0,0,1-3.695-15.738,23.408,23.408,0,0,1,4.023-13.439,14.392,14.392,0,0,1,12.316-6.514,18.409,18.409,0,0,1,10.592,3.421,20.681,20.681,0,0,1,6.678,7.91q4.844-15.519,18.5-15.519Z" transform="translate(-405.809 -284.461)" fill="#325a9c"/>
        <path id="Path_5452" data-name="Path 5452" d="M456.427,384.1a32.226,32.226,0,0,1,21.348,7.691c6.6,5.447,9.88,12.262,9.88,20.391q0,11.249-7.992,17.927c-5.337,4.434-12.481,6.678-21.431,6.678q-16.832,0-31.722-10.264a56.481,56.481,0,0,1-20.692-25.208,22.956,22.956,0,0,1,2.381-5.583l2.792-5.173,2.463,1.177q.616,9.853,10.318,19.6t20.5,11.742c-3.421-3.586-5.419-5.748-5.967-6.514-2.709-3.5-4.078-6.678-4.078-9.5,0-6.76,2.053-12.289,6.186-16.531q6.2-6.4,16.011-6.4Zm6.268,11.413a14.582,14.582,0,0,0-11.057,4.762,14.356,14.356,0,0,0-4.325,10.318,13.232,13.232,0,0,0,3.421,9.47c2.436,2.628,5.83,3.941,10.209,3.941a11.952,11.952,0,0,0,9.935-5.036,17.239,17.239,0,0,0,3.5-10.811,13.135,13.135,0,0,0-3.12-9.141,10.883,10.883,0,0,0-8.567-3.476Z" transform="translate(-405.791 -324.516)" fill="#325a9c"/>
        <path id="Path_5453" data-name="Path 5453" d="M444.439,362.33q17.777,0,30.271,8.047,12.932,8.375,12.946,20.993,0,10.92-11.824,17.681-10.756,6.158-25.673,6.158-18.064,0-31.038-8.457-13.3-8.58-13.3-20.993,0-11.413,10.565-17.489,10.141-5.953,28.054-5.939Zm3.64,11.961c-9.853,0-17.352,1.615-22.5,4.79-4.242,2.655-6.377,5.94-6.377,9.88q0,14,28.738,13.986,25.659,0,25.673-14.971,0-6.2-6.9-9.963c-4.6-2.518-10.811-3.75-18.611-3.75Z" transform="translate(-405.791 -362.33)" fill="#325a9c"/>
      </g>
    </g>
  </g>
</svg>
