<svg xmlns="http://www.w3.org/2000/svg" width="18" height="16.511" viewBox="0 0 18 16.511">
  <path id="dashboard" d="M17.922,8.822A9,9,0,0,0,0,9.994a8.907,8.907,0,0,0,2.819,6.533,3.629,3.629,0,0,0,2.515.966h7.324a3.745,3.745,0,0,0,2.631-1.072,8.956,8.956,0,0,0,2.633-7.6ZM5.6,14.989a.75.75,0,0,1-1.059.067A6.744,6.744,0,0,1,9,3.245a6.824,6.824,0,0,1,1.686.212.75.75,0,1,1-.375,1.453A5.245,5.245,0,0,0,5.536,13.93.75.75,0,0,1,5.6,14.989Zm3.4-3.5A1.5,1.5,0,1,1,9.382,8.55l2.835-2.835a.75.75,0,1,1,1.06,1.06L10.443,9.61A1.482,1.482,0,0,1,9,11.494Zm4.454,3.563a.75.75,0,0,1-.991-1.125,5.243,5.243,0,0,0,1.62-5.249.75.75,0,1,1,1.453-.375,6.819,6.819,0,0,1,.212,1.686,6.749,6.749,0,0,1-2.295,5.062Z" transform="translate(0 -0.982)" fill="#de5926"/>
</svg>
