<svg xmlns="http://www.w3.org/2000/svg" width="18" height="18" viewBox="0 0 18 18">
  <g id="home" transform="translate(0 -0.16)">
    <path id="Path_5328" data-name="Path 5328" d="M194.25,319.841a2.251,2.251,0,0,0-2.25,2.251v4.5h4.5v-4.5A2.251,2.251,0,0,0,194.25,319.841Z" transform="translate(-185.25 -308.435)" fill="#de5926"/>
    <g id="Group_2970" data-name="Group 2970" transform="translate(0 0.16)">
      <path id="Path_5329" data-name="Path 5329" d="M12.75,13.657v4.5h3A2.251,2.251,0,0,0,18,15.908V9.063a1.5,1.5,0,0,0-.422-1.045L11.2,1.124A3,3,0,0,0,6.965.957q-.087.08-.167.167L.436,8.016A1.5,1.5,0,0,0,0,9.075v6.834A2.251,2.251,0,0,0,2.25,18.16h3v-4.5A3.8,3.8,0,0,1,8.909,9.891,3.8,3.8,0,0,1,12.75,13.657Z" transform="translate(0 -0.16)" fill="#de5926"/>
      <path id="Path_5330" data-name="Path 5330" d="M194.25,319.841a2.251,2.251,0,0,0-2.25,2.251v4.5h4.5v-4.5A2.251,2.251,0,0,0,194.25,319.841Z" transform="translate(-185.25 -308.595)" fill="#de5926"/>
    </g>
  </g>
</svg>
