<svg xmlns="http://www.w3.org/2000/svg" width="435.72" height="436.48" viewBox="0 0 435.72 436.48">
  <g id="Layer_1-2" transform="translate(0 0.02)">
    <g id="Group_3076" data-name="Group 3076">
      <g id="Group_3071" data-name="Group 3071">
        <path id="Path_5436" data-name="Path 5436" d="M226.45,323.36c-41.56-.7-77.37-15.53-106.85-44.79a143.784,143.784,0,0,1-41.35-79.61c-7.98-47.4,4.05-89.53,35.67-125.77,22.76-26.08,51.59-42.09,85.48-48.36a156,156,0,0,1,38.64-1.86c30.49,1.99,57.38,12.39,81.63,30.47,7.79,5.82,14.56,12.76,21.32,19.71,1.97,2.02,1.45,3.21-.31,4.87a147.977,147.977,0,0,0-10.97,11.01c-3.21,3.73-5.28,4.07-8.91.07-17.5-19.33-38.91-32.5-64.5-38.08-42.33-9.24-80.21.03-112.97,28.63-20.95,18.29-33.89,41.34-39.46,68.58-8.34,40.83,2.87,76.3,29.36,107.61,14.52,17.16,33.19,28.45,53.98,35.96a112.466,112.466,0,0,0,50.13,6.21c32.29-3.39,60.19-16.36,82.54-40.38,4.65-5,4.74-4.93,9.62-.05,3.55,3.54,7.04,7.15,10.68,10.59,1.89,1.78,1.81,3.1.05,4.99-23,24.66-50.55,41.05-84.01,47.24a148.03,148.03,0,0,1-29.78,2.96Z" fill="#325a9c" fill-rule="evenodd"/>
        <path id="Path_5437" data-name="Path 5437" d="M226.6,274.07c-31.13-.41-56.74-12.73-77.43-35.79-1.78-1.99-1.58-3.12.22-4.89q17.865-17.595,35.5-35.41c1.84-1.86,3.02-1.98,4.84-.03q5.67,6.03,11.72,11.68c2.26,2.11,2.17,3.58-.04,5.7-6.02,5.78-11.78,11.85-17.82,17.63-2.22,2.12-1.94,3.07.54,4.7a78.2,78.2,0,0,0,83.79,1.56c5.11-3.08,5.09-3.28.87-7.48Q210.1,173.42,151.4,115.12c-4.95-4.92-4.88-4.87-.14-10.03,16.01-17.47,35.56-28.9,59-32.31,36.46-5.29,67.76,5.41,93.31,32.32,3.16,3.34,3.22,5.44-.3,8.8-11.49,10.95-22.66,22.25-33.77,33.59-2.44,2.5-3.92,3.32-6.56.2a125.136,125.136,0,0,0-10.97-11c-2.07-1.9-2.14-3.09-.05-5.09,6.4-6.12,12.5-12.55,18.91-18.67,2.19-2.09,2.59-3.19-.28-5.05a78.7,78.7,0,0,0-86.03-.31c-3.84,2.46-3.12,3.88-.42,6.57q58.7,58.335,117.24,116.81c5.79,5.77,5.8,5.8.08,11.65-16.28,16.65-35.86,26.91-58.91,30.47a46.485,46.485,0,0,1-4.87.95c-3.67.14-7.35.05-11.03.05Z" fill="#de5926" fill-rule="evenodd"/>
      </g>
      <g id="Group_3072" data-name="Group 3072">
        <path id="Path_5438" data-name="Path 5438" d="M50.92,196.38c-.17-1.26-.32-2.53-.47-3.8l3.78-.44c.14,1.25.3,2.5.46,3.74l-3.77.5Z" fill="#6d6e73"/>
        <path id="Path_5439" data-name="Path 5439" d="M220.83,345.92q-3.855-.03-7.67-.23l.2-3.8c2.48.13,4.99.21,7.5.23Zm7.68-.11-.13-3.8q3.765-.135,7.49-.43l.3,3.79c-2.53.2-5.09.35-7.65.43Zm-23-.69q-3.84-.375-7.62-.91l.53-3.76c2.47.35,4.95.64,7.45.89Zm38.28-.52-.46-3.77q3.75-.465,7.42-1.09l.64,3.75c-2.51.42-5.04.8-7.6,1.11Zm-53.47-1.63c-2.52-.47-5.03-1-7.51-1.58l.86-3.7q3.645.855,7.35,1.54l-.7,3.74Zm68.6-.93-.8-3.72c2.45-.53,4.89-1.11,7.3-1.74l.96,3.67c-2.47.65-4.95,1.24-7.46,1.78Zm-83.55-2.56c-2.47-.69-4.92-1.45-7.34-2.24l1.19-3.61c2.37.78,4.77,1.51,7.18,2.19l-1.03,3.66Zm98.38-1.33-1.13-3.63q3.6-1.11,7.11-2.39l1.29,3.57q-3.6,1.3-7.28,2.44ZM160.8,334.67q-3.585-1.365-7.11-2.89l1.51-3.49q3.45,1.485,6.96,2.83l-1.35,3.55Zm127.37-1.73-1.45-3.52q3.465-1.425,6.86-3l1.6,3.45c-2.31,1.07-4.65,2.1-7.01,3.07Zm-141.46-4.36q-3.465-1.68-6.82-3.51l1.81-3.34c2.2,1.19,4.42,2.34,6.68,3.43l-1.66,3.42Zm155.34-2.09-1.75-3.38c2.22-1.15,4.41-2.36,6.57-3.6l1.9,3.29Q305.455,324.72,302.05,326.49Zm-168.82-5.23q-3.285-1.98-6.48-4.1l2.1-3.17q3.135,2.07,6.34,4.02l-1.96,3.25Zm182.08-2.44-2.04-3.2c2.11-1.35,4.19-2.74,6.22-4.17l2.19,3.11q-3.135,2.205-6.37,4.27Zm-194.86-6.05q-3.1-2.265-6.1-4.66l2.38-2.97q2.925,2.34,5.96,4.56ZM327.85,310l-2.32-3.01q2.97-2.295,5.84-4.71l2.45,2.9Q330.895,307.655,327.85,310Zm11.72-9.89-2.58-2.79c1.84-1.7,3.64-3.43,5.4-5.21l2.69,2.68q-2.7,2.715-5.52,5.33Zm10.8-10.89-2.81-2.56q2.52-2.775,4.92-5.67l2.92,2.43q-2.46,2.955-5.04,5.79Zm9.81-11.8-3.03-2.3c1.51-2,2.98-4.02,4.41-6.08l3.12,2.16q-2.19,3.165-4.5,6.22Zm8.73-12.63-3.22-2.02q1.995-3.18,3.85-6.45l3.31,1.88C371.59,260.43,370.27,262.63,368.91,264.79Zm7.58-13.36-3.39-1.73c1.14-2.23,2.22-4.48,3.26-6.77l3.46,1.57C378.76,246.84,377.64,249.15,376.49,251.43Zm6.36-13.99-3.52-1.42q1.395-3.48,2.65-7.04l3.59,1.26q-1.275,3.645-2.71,7.2Zm5.09-14.52-3.64-1.1q1.08-3.585,2-7.23l3.68.93q-.945,3.735-2.05,7.39Zm3.77-14.87-3.72-.77q.75-3.66,1.34-7.38l3.76.6c-.41,2.53-.87,5.05-1.38,7.54Zm2.42-15.14-3.78-.44q.435-3.705.69-7.47l3.79.27q-.27,3.84-.71,7.64ZM49.76,184.93q-.255-3.81-.35-7.66l3.8-.09c.07,2.52.18,5.01.35,7.5l-3.79.26Zm345.46-7.32-3.8-.1c.04-1.51.06-3.03.06-4.55,0-.99,0-1.97-.03-2.95l3.8-.07q.03,1.515.03,3.03,0,2.325-.06,4.65ZM53.19,169.67l-3.8-.07q.075-3.855.32-7.66l3.79.24Q53.26,165.9,53.19,169.67Zm337.97-7.17c-.15-2.5-.36-5-.62-7.47l3.78-.4q.4,3.795.63,7.65l-3.79.23ZM54.13,154.7l-3.78-.4q.42-3.825.99-7.61l3.76.57c-.37,2.46-.7,4.94-.96,7.44Zm335.45-7.11c-.37-2.48-.8-4.95-1.28-7.39l3.73-.73q.735,3.75,1.31,7.56l-3.76.57ZM56.39,139.87l-3.73-.74c.5-2.52,1.05-5.01,1.66-7.49l3.69.91Q57.125,136.18,56.39,139.87Zm330.3-7c-.59-2.43-1.24-4.85-1.93-7.25l3.65-1.06q1.065,3.675,1.98,7.41l-3.7.89ZM59.96,125.31l-3.64-1.07c.72-2.46,1.49-4.9,2.33-7.31l3.59,1.24q-1.215,3.54-2.27,7.15Zm322.54-6.84c-.8-2.37-1.67-4.72-2.57-7.05l3.54-1.38c.93,2.38,1.8,4.78,2.64,7.2l-3.6,1.23ZM64.83,111.09l-3.54-1.39q1.41-3.585,2.98-7.09l3.47,1.55q-1.53,3.42-2.9,6.93Zm312.22-6.58q-1.53-3.435-3.19-6.78l3.41-1.69q1.7,3.42,3.26,6.93l-3.48,1.55ZM70.94,97.36l-3.4-1.7c1.15-2.29,2.35-4.56,3.6-6.79l3.32,1.85c-1.21,2.18-2.39,4.4-3.51,6.64ZM370.38,91.1c-1.21-2.19-2.47-4.34-3.78-6.48l3.25-1.98c1.33,2.17,2.62,4.38,3.86,6.61l-3.33,1.85ZM78.26,84.23l-3.24-2q2.025-3.27,4.18-6.44l3.14,2.14q-2.115,3.1-4.09,6.3Zm284.29-5.91q-2.1-3.1-4.34-6.12l3.05-2.27c1.52,2.05,3,4.14,4.44,6.25l-3.15,2.13ZM86.71,71.81l-3.05-2.28q2.295-3.075,4.73-6.05l2.94,2.41Q88.945,68.8,86.7,71.8Zm266.91-5.53c-1.58-1.94-3.2-3.85-4.86-5.71l2.84-2.52q2.535,2.865,4.97,5.84l-2.95,2.4ZM96.22,60.19l-2.84-2.53c1.7-1.91,3.46-3.78,5.24-5.6l2.72,2.66c-1.75,1.79-3.46,3.61-5.12,5.48Zm247.43-5.12c-1.75-1.79-3.53-3.55-5.35-5.26l2.61-2.77c1.87,1.75,3.69,3.55,5.47,5.38l-2.72,2.65ZM106.71,49.46l-2.6-2.77q2.805-2.625,5.71-5.12l2.47,2.89c-1.9,1.63-3.77,3.3-5.59,5Zm226.02-4.68q-2.85-2.445-5.79-4.77l2.35-2.99c2.01,1.59,3.99,3.21,5.92,4.88ZM118.1,39.7l-2.35-2.99q3.015-2.37,6.15-4.59l2.2,3.1q-3.06,2.175-6,4.49Zm202.85-4.21c-2.04-1.46-4.1-2.87-6.2-4.25l2.08-3.18q3.21,2.1,6.33,4.34l-2.21,3.09ZM130.3,30.99l-2.07-3.19q3.21-2.085,6.52-4.03l1.92,3.28C134.52,28.32,132.39,29.63,130.3,30.99Zm178.07-3.72c-2.15-1.27-4.34-2.5-6.55-3.68l1.79-3.36c2.26,1.21,4.49,2.46,6.7,3.77l-1.94,3.27ZM143.21,23.39l-1.78-3.36c2.25-1.19,4.54-2.34,6.85-3.43l1.63,3.43q-3.39,1.6-6.69,3.36ZM295.12,20.2c-2.26-1.08-4.54-2.11-6.86-3.09l1.49-3.5c2.37,1,4.7,2.06,7.01,3.16ZM156.74,16.97l-1.48-3.5c2.34-.99,4.72-1.92,7.12-2.81l1.32,3.57c-2.35.86-4.66,1.78-6.96,2.75Zm124.53-2.63q-3.51-1.3-7.11-2.46l1.17-3.62q3.675,1.185,7.27,2.52l-1.33,3.56ZM170.79,11.78l-1.16-3.62c2.43-.78,4.89-1.5,7.36-2.17l.99,3.67Q174.35,10.635,170.79,11.78Zm96.2-2.04c-2.41-.65-4.84-1.26-7.29-1.81l.84-3.71q3.75.84,7.45,1.85ZM185.27,7.86l-.83-3.71q3.735-.84,7.52-1.51l.66,3.74q-3.705.66-7.35,1.47Zm67.08-1.42c-2.46-.44-4.92-.82-7.41-1.16l.5-3.77q3.81.51,7.58,1.18l-.67,3.74Zm-52.31-1.2-.5-3.77q3.795-.5,7.63-.83l.33,3.79Q203.75,4.76,200.04,5.24Zm37.44-.79c-2.48-.22-4.97-.39-7.49-.5l.17-3.8q3.855.18,7.65.51l-.33,3.79Zm-22.49-.51-.16-3.8c2.48-.11,4.99-.16,7.51-.16l.16,3.8C219.88,3.78,217.43,3.83,214.99,3.94Z" fill="#6d6e73"/>
        <path id="Path_5440" data-name="Path 5440" d="M108.07,302.81c-.96-.85-1.92-1.7-2.86-2.57l2.58-2.8c.92.85,1.85,1.69,2.79,2.51l-2.51,2.85Z" fill="#6d6e73"/>
        <path id="Path_5441" data-name="Path 5441" d="M54.74,207.44c1.16-5.64,3.53-12.77,6.48-17.42l-8.44,4.6-9.43-1.87c4.2,3.56,8.59,9.66,11.39,14.7Z" fill="#6d6e73"/>
        <path id="Path_5442" data-name="Path 5442" d="M103.09,282.04l4.71,17.91-17.99-4.39Z" fill="#6d6e73"/>
      </g>
      <g id="Group_3075" data-name="Group 3075">
        <g id="Group_3073" data-name="Group 3073">
          <path id="Path_5443" data-name="Path 5443" d="M38.72,409.89l-4.04,9.82a29.808,29.808,0,0,1-10.02,1.83q-11.49,0-18.15-7.14Q0,407.47,0,395.91q0-12.6,7.53-20.3t20.12-7.69a35.876,35.876,0,0,1,9.92,1.11l-.52,11.96a37.345,37.345,0,0,0-5.18-4.14,12.445,12.445,0,0,0-6.39-1.63,13.166,13.166,0,0,0-11.21,5.67,20.79,20.79,0,0,0-3.66,12.45c0,5.67,1.26,10.32,3.77,13.92q4.35,6.15,12.46,6.15a24.831,24.831,0,0,0,11.89-3.52Z" fill="#325a9c"/>
          <path id="Path_5444" data-name="Path 5444" d="M92.5,393.47a29.634,29.634,0,0,1-6.61,19.41,22.329,22.329,0,0,1-18.15,8.66,21.381,21.381,0,0,1-17.05-7.76,26.62,26.62,0,0,1-6.3-17.94q0-11.745,6.72-19.62,7.14-8.295,18.73-8.29a20.669,20.669,0,0,1,16.79,7.71q5.88,7.185,5.88,17.84Zm-10.6,2.52a24.624,24.624,0,0,0-3.97-13.71q-4.545-7.005-11.76-7.01c-.49,0-1.24.05-2.25.16q-8.985,4.545-8.99,16.95a27.505,27.505,0,0,0,3.97,14.49q4.65,7.7,11.92,7.33l2.3-.1Q81.9,408.235,81.9,396Z" fill="#325a9c"/>
          <path id="Path_5445" data-name="Path 5445" d="M171.72,420.44H157.34a49.193,49.193,0,0,0,2.05-14.55V387.93q0-5.1-1.26-7.3-1.785-3.045-6.66-3.05-4.62,0-10.65,4.14v27.63a41.283,41.283,0,0,0,2.05,11.08H128.49q2.04-4.89,2.05-13.92V389.18c0-3.89-.33-6.58-1-8.09q-1.62-3.525-6.72-3.52-4.245,0-10.86,4.04l.05,24.8A42.146,42.146,0,0,0,114,420.44H99.63a52.244,52.244,0,0,0,2.05-15.37V387.34q0-11.49-2.05-18.31h12.33v9.92q6.15-7.14,6.99-7.87a13.851,13.851,0,0,1,9.25-3.15q10.14,0,12.25,11.44l7.57-8.04a14.5,14.5,0,0,1,9.62-3.39c4.98,0,8.37,2.06,10.2,6.19q1.845,4.14,1.84,12.59,0,23.295-.1,17.05a68.95,68.95,0,0,0,2.15,16.68Z" fill="#325a9c"/>
          <path id="Path_5446" data-name="Path 5446" d="M225.76,396.36q0,10.815-4.09,17.31-4.92,7.875-15.14,7.87a21.141,21.141,0,0,1-13.46-5.14v7.24a38.521,38.521,0,0,0,2.05,12.8H180.74a54.894,54.894,0,0,0,2.05-15.79V384.82a56.559,56.559,0,0,0-2.05-15.79h12.33v8.92q3.045-3.57,6.09-7.08a11.45,11.45,0,0,1,8.06-2.94q9.585,0,14.61,9.97a40.867,40.867,0,0,1,3.93,18.47Zm-10.6-2.1a21.264,21.264,0,0,0-2.82-11q-3.345-5.685-9.03-5.68-4.335,0-10.23,3.15v27.96q3.81,4.725,9.14,4.73,12.945,0,12.95-19.15Z" fill="#325a9c"/>
          <path id="Path_5447" data-name="Path 5447" d="M261.17,406.71a13.072,13.072,0,0,1-5.51,11.16,19.979,19.979,0,0,1-12.28,3.67,64.215,64.215,0,0,1-11.8-1.79V406.96q7.215,7.245,12.14,7.24a7.117,7.117,0,0,0,4.79-1.78,5.7,5.7,0,0,0,2.07-4.51q0-3.2-4.6-7.13c-5.62-4.72-8.47-7.14-8.58-7.28q-4.65-4.92-4.65-10.59a13.407,13.407,0,0,1,5.56-11.01,18.861,18.861,0,0,1,11.96-3.98,26.716,26.716,0,0,1,9.65,2v10.01q-5.385-4.665-9.47-4.67a8,8,0,0,0-4.81,1.47,5.169,5.169,0,0,0-2.3,4.35q0,3.465,4.6,7.44l8.58,7.34a15.5,15.5,0,0,1,4.66,10.85Z" fill="#de5926"/>
          <path id="Path_5448" data-name="Path 5448" d="M306.6,390.85l-.1,5.25H277.7q2.25,17.31,15.97,17.31a29.893,29.893,0,0,0,11.73-2.83l-3.88,9.45a41.7,41.7,0,0,1-9.81,1.51q-11.64,0-18.26-7.5-6.345-7.14-6.35-18.89,0-10.9,5.09-18.52a18.578,18.578,0,0,1,16.27-8.71q9.18,0,14.06,7.19,4.3,6.24,4.09,15.74Zm-8.6-3.61a12.42,12.42,0,0,0-2.45-8.17,9.211,9.211,0,0,0-15.29.57,16.948,16.948,0,0,0-2.3,9.11h19.99l.05-1.51Z" fill="#de5926"/>
          <path id="Path_5449" data-name="Path 5449" d="M358.07,436.44H343.75q1.995-3.825,1.99-12.43V411.79l-7.66,8.5a18.268,18.268,0,0,1-6.18,1.26q-9.21,0-14.29-6.98-4.5-6.24-4.5-15.74,0-15.48,9.71-23.5,9.03-7.395,24.77-7.4a80.969,80.969,0,0,1,10.49.84,44.557,44.557,0,0,0-1.99,12.28v36.73q0,11.8,1.99,18.68Zm-12.33-27.91V376.16a28.452,28.452,0,0,0-6.06-.89q-8.4,0-12.48,6.09-3.555,5.25-3.55,14.11,0,6.825,2.45,11.12a10.065,10.065,0,0,0,9.29,5.3q3.87,0,10.34-3.36Z" fill="#de5926"/>
          <path id="Path_5450" data-name="Path 5450" d="M398.89,368.92l-2.15,11.17a12.579,12.579,0,0,0-7.12-2.52c-2.31,0-5.83,1.15-10.36,3.46v24.03a56.376,56.376,0,0,0,2.05,15.37H366.93a49.435,49.435,0,0,0,2.05-12.85V387.22a70.2,70.2,0,0,0-2.05-18.21h12.33v9.29l8.01-8.92a20,20,0,0,1,6.85-1.47,12.255,12.255,0,0,1,4.76,1Z" fill="#de5926"/>
        </g>
        <g id="Group_3074" data-name="Group 3074">
          <path id="Path_5451" data-name="Path 5451" d="M424.88,407.18q4.77,0,9.07,5.14a8.6,8.6,0,0,1,1.77,5.72,9.485,9.485,0,0,1-2.58,6.75q-2.4-.915-5.14-1.74v-1q3.015-1.14,3.01-5.12a6.48,6.48,0,0,0-.79-3.24,4.158,4.158,0,0,0-3.65-2.5,4.051,4.051,0,0,0-3.53,1.96,6.964,6.964,0,0,0-1.15,4,11.128,11.128,0,0,0,.28,2.39l-.64.46-3.27-1a7.6,7.6,0,0,0-1.21-3.82,3.678,3.678,0,0,0-3.14-2c-2.45,0-3.71,1.43-3.8,4.3a6.4,6.4,0,0,0,1.76,4.56l-.31.79-4.4-1.1a12.719,12.719,0,0,1-1.35-5.75,8.553,8.553,0,0,1,1.47-4.91,5.259,5.259,0,0,1,4.5-2.38,6.726,6.726,0,0,1,3.87,1.25,7.556,7.556,0,0,1,2.44,2.89q1.77-5.67,6.76-5.67Z" fill="#325a9c"/>
          <path id="Path_5452" data-name="Path 5452" d="M424.31,384.1a11.775,11.775,0,0,1,7.8,2.81,9.284,9.284,0,0,1,3.61,7.45,8.092,8.092,0,0,1-2.92,6.55,11.87,11.87,0,0,1-7.83,2.44,20.069,20.069,0,0,1-11.59-3.75,20.636,20.636,0,0,1-7.56-9.21,8.39,8.39,0,0,1,.87-2.04l1.02-1.89.9.43q.225,3.6,3.77,7.16a14.348,14.348,0,0,0,7.49,4.29c-1.25-1.31-1.98-2.1-2.18-2.38a5.929,5.929,0,0,1-1.49-3.47,8.3,8.3,0,0,1,2.26-6.04,7.781,7.781,0,0,1,5.85-2.34Zm2.29,4.17a5.328,5.328,0,0,0-4.04,1.74,5.245,5.245,0,0,0-1.58,3.77,4.627,4.627,0,0,0,4.98,4.9,4.367,4.367,0,0,0,3.63-1.84,6.3,6.3,0,0,0,1.28-3.95,4.8,4.8,0,0,0-1.14-3.34,3.976,3.976,0,0,0-3.13-1.27Z" fill="#325a9c"/>
          <path id="Path_5453" data-name="Path 5453" d="M419.93,362.33a20.011,20.011,0,0,1,11.06,2.94q4.725,3.06,4.73,7.67,0,3.99-4.32,6.46a18.582,18.582,0,0,1-9.38,2.25,20.3,20.3,0,0,1-11.34-3.09q-4.86-3.135-4.86-7.67a7,7,0,0,1,3.86-6.39q3.705-2.175,10.25-2.17Zm1.33,4.37c-3.6,0-6.34.59-8.22,1.75a4.223,4.223,0,0,0-2.33,3.61q0,5.115,10.5,5.11,9.375,0,9.38-5.47a4.106,4.106,0,0,0-2.52-3.64,14.219,14.219,0,0,0-6.8-1.37Z" fill="#325a9c"/>
        </g>
      </g>
    </g>
  </g>
</svg>
