<svg xmlns="http://www.w3.org/2000/svg" width="75" height="73.723" viewBox="0 0 75 73.723">
  <g id="Group_3066" data-name="Group 3066" transform="translate(609.65 -666)">
    <g id="Group_3060" data-name="Group 3060" transform="translate(-602.722 670.811)">
      <path id="Path_5416" data-name="Path 5416" d="M107.952,86.658a31.989,31.989,0,0,1-22.771-9.545,30.642,30.642,0,0,1-8.812-16.966,31.152,31.152,0,0,1,7.6-26.8,31.063,31.063,0,0,1,18.217-10.306,33.246,33.246,0,0,1,8.235-.4,31.942,31.942,0,0,1,17.4,6.493,39.23,39.23,0,0,1,4.544,4.2c.42.43.309.684-.066,1.038a31.535,31.535,0,0,0-2.338,2.346c-.684.795-1.125.867-1.9.015a25.619,25.619,0,0,0-13.746-8.115c-9.021-1.969-17.094.006-24.075,6.1a25.7,25.7,0,0,0-8.409,14.615c-1.777,8.7.612,16.26,6.257,22.933a26.43,26.43,0,0,0,11.5,7.663,23.968,23.968,0,0,0,10.683,1.323,27.107,27.107,0,0,0,17.59-8.605c.991-1.066,1.01-1.051,2.05-.011.757.754,1.5,1.524,2.276,2.257.4.379.386.661.011,1.063a31.936,31.936,0,0,1-17.9,10.067,31.546,31.546,0,0,1-6.346.631Z" transform="translate(-75.86 -22.553)" fill="#fff" fill-rule="evenodd"/>
      <path id="Path_5417" data-name="Path 5417" d="M164.511,114.645a21.722,21.722,0,0,1-16.5-7.627c-.379-.424-.337-.665.047-1.042q3.807-3.75,7.565-7.546c.392-.4.644-.422,1.031-.006q1.208,1.285,2.5,2.489c.482.45.462.763-.009,1.215-1.283,1.232-2.51,2.525-3.8,3.757-.473.452-.413.654.115,1a16.666,16.666,0,0,0,17.857.332c1.089-.656,1.085-.7.185-1.594Q160.994,93.2,148.486,80.771c-1.055-1.049-1.04-1.038-.03-2.137a20.851,20.851,0,0,1,12.574-6.886,21.734,21.734,0,0,1,19.885,6.888c.673.712.686,1.159-.064,1.875-2.449,2.334-4.829,4.742-7.2,7.158-.52.533-.835.708-1.4.043a26.668,26.668,0,0,0-2.338-2.344c-.441-.4-.456-.659-.011-1.085,1.364-1.3,2.664-2.675,4.03-3.979.467-.445.552-.68-.06-1.076a16.771,16.771,0,0,0-18.334-.066c-.818.524-.665.827-.09,1.4q12.509,12.432,24.985,24.893c1.234,1.23,1.236,1.236.017,2.483a21.792,21.792,0,0,1-12.554,6.493,9.908,9.908,0,0,1-1.038.2c-.782.03-1.566.011-2.351.011Z" transform="translate(-132.387 -61.044)" fill="#fff" fill-rule="evenodd"/>
    </g>
    <g id="Group_3061" data-name="Group 3061" transform="translate(-609.65 666)">
      <path id="Path_5418" data-name="Path 5418" d="M50.55,193.044c-.036-.269-.068-.539-.1-.81l.806-.094c.03.266.064.533.1.8Z" transform="translate(-48.937 -151.189)" fill="#fff"/>
      <path id="Path_5419" data-name="Path 5419" d="M85.926,73.7q-.822-.006-1.635-.049l.043-.81c.529.028,1.063.045,1.6.049Zm1.637-.023-.028-.81q.8-.029,1.6-.092l.064.808c-.539.043-1.085.075-1.63.092Zm-4.9-.147q-.818-.08-1.624-.194l.113-.8c.526.075,1.055.136,1.588.19Zm8.158-.111-.1-.8q.8-.1,1.581-.232l.136.8C91.9,73.275,91.364,73.356,90.819,73.422Zm-11.4-.347c-.537-.1-1.072-.213-1.6-.337l.183-.789q.777.182,1.566.328Zm14.619-.2-.17-.793c.522-.113,1.042-.237,1.556-.371l.2.782c-.526.139-1.055.264-1.59.379Zm-17.805-.546c-.526-.147-1.049-.309-1.564-.477l.254-.769c.505.166,1.017.322,1.53.467l-.22.78ZM97.2,72.048l-.241-.774q.767-.237,1.515-.509l.275.761q-.767.278-1.551.52Zm-24.071-.742q-.764-.291-1.515-.616l.322-.744q.735.316,1.483.6l-.288.757Zm27.144-.369-.309-.75q.738-.3,1.462-.639l.341.735c-.492.228-.991.448-1.494.654ZM70.13,70.008q-.738-.358-1.453-.748l.386-.712c.469.254.942.5,1.424.731l-.354.729Zm33.1-.445-.373-.72c.473-.245.94-.5,1.4-.767l.4.7Q103.96,69.186,103.234,69.563ZM67.257,68.448q-.7-.422-1.381-.874l.448-.676q.668.441,1.351.857l-.418.693Zm38.8-.52-.435-.682c.45-.288.893-.584,1.326-.889l.467.663q-.668.47-1.358.91ZM64.534,66.639q-.662-.483-1.3-.993l.507-.633q.623.5,1.27.972Zm44.2-.59-.494-.641q.633-.489,1.245-1l.522.618Q109.382,65.549,108.733,66.049Zm2.5-2.108-.55-.595c.392-.362.776-.731,1.151-1.11l.573.571q-.575.579-1.176,1.136Zm2.3-2.321-.6-.546q.537-.591,1.049-1.208l.622.518q-.524.63-1.074,1.234Zm2.091-2.515-.646-.49c.322-.426.635-.857.94-1.3l.665.46q-.467.674-.959,1.326Zm1.86-2.692-.686-.43q.425-.678.82-1.375l.705.4C118.054,55.485,117.773,55.954,117.483,56.414Zm1.615-2.847-.722-.369c.243-.475.473-.955.695-1.443l.737.335C119.582,52.589,119.343,53.081,119.1,53.567Zm1.355-2.981-.75-.3q.3-.742.565-1.5l.765.269q-.272.777-.578,1.534Zm1.085-3.094-.776-.234q.23-.764.426-1.541l.784.2q-.2.8-.437,1.575Zm.8-3.169-.793-.164q.16-.78.286-1.573l.8.128c-.087.539-.185,1.076-.294,1.607Zm.516-3.226L122.052,41q.093-.79.147-1.592l.808.058q-.058.818-.151,1.628Zm-73.389-1.7q-.054-.812-.075-1.632l.81-.019c.015.537.038,1.068.075,1.6l-.808.055Zm73.621-1.56-.81-.021c.009-.322.013-.646.013-.97,0-.211,0-.42-.006-.629l.81-.015q.006.323.006.646,0,.5-.013.991ZM50.2,36.143l-.81-.015q.016-.822.068-1.632l.808.051Q50.215,35.339,50.2,36.143Zm72.025-1.528c-.032-.533-.077-1.066-.132-1.592l.806-.085q.086.809.134,1.63l-.808.049ZM50.4,32.952l-.806-.085q.09-.815.211-1.622l.8.121c-.079.524-.149,1.053-.2,1.586Zm71.488-1.515c-.079-.529-.17-1.055-.273-1.575l.795-.156q.157.8.279,1.611l-.8.121ZM50.882,29.792l-.795-.158c.107-.537.224-1.068.354-1.6l.786.194Q51.038,29.006,50.882,29.792Zm70.39-1.492c-.126-.518-.264-1.034-.411-1.545l.778-.226q.227.783.422,1.579l-.789.19Zm-69.63-1.611-.776-.228c.153-.524.318-1.044.5-1.558l.765.264q-.259.754-.484,1.524Zm68.737-1.458c-.17-.505-.356-1.006-.548-1.5l.754-.294c.2.507.384,1.019.563,1.534l-.767.262Zm-67.7-1.573-.754-.3q.3-.764.635-1.511l.739.33q-.326.729-.618,1.477Zm66.537-1.4q-.326-.732-.68-1.445l.727-.36q.361.729.695,1.477l-.742.33ZM53.982,20.733l-.725-.362c.245-.488.5-.972.767-1.447l.708.394c-.258.465-.509.938-.748,1.415ZM117.8,19.4c-.258-.467-.526-.925-.806-1.381l.693-.422c.283.462.558.933.823,1.409l-.71.394ZM55.542,17.935l-.69-.426q.432-.7.891-1.372l.669.456q-.451.662-.872,1.343Zm60.585-1.259q-.448-.662-.925-1.3l.65-.484c.324.437.639.882.946,1.332l-.671.454ZM57.343,15.288l-.65-.486q.489-.655,1.008-1.289l.627.514q-.508.62-.987,1.259Zm56.881-1.179c-.337-.413-.682-.82-1.036-1.217l.605-.537q.54.611,1.059,1.245l-.629.511Zm-54.855-1.3-.605-.539c.362-.407.737-.806,1.117-1.193l.58.567c-.373.381-.737.769-1.091,1.168ZM112.1,11.72c-.373-.381-.752-.757-1.14-1.121l.556-.59c.4.373.786.757,1.166,1.147l-.58.565Zm-50.494-1.2-.554-.59q.6-.559,1.217-1.091l.526.616c-.4.347-.8.7-1.191,1.066Zm48.167-1q-.607-.521-1.234-1.017l.5-.637c.428.339.85.684,1.262,1.04ZM64.033,8.445l-.5-.637q.643-.505,1.311-.978l.469.661q-.652.464-1.279.957Zm43.229-.9c-.435-.311-.874-.612-1.321-.906l.443-.678q.684.448,1.349.925l-.471.659Zm-40.63-.959-.441-.68q.684-.444,1.389-.859l.409.7C67.532,6.02,67.078,6.3,66.633,6.589ZM104.581,5.8c-.458-.271-.925-.533-1.4-.784l.381-.716c.482.258.957.524,1.428.8l-.413.7Zm-35.2-.827L69,4.253c.479-.254.968-.5,1.46-.731l.347.731q-.722.342-1.426.716Zm32.374-.68c-.482-.23-.968-.45-1.462-.659l.318-.746c.505.213,1,.439,1.494.673ZM72.267,3.6l-.315-.746c.5-.211,1.006-.409,1.517-.6l.281.761c-.5.183-.993.379-1.483.586Zm26.539-.56q-.748-.278-1.515-.524l.249-.771q.783.253,1.549.537l-.283.759ZM75.262,2.495l-.247-.771c.518-.166,1.042-.32,1.568-.462l.211.782Q76.02,2.251,75.262,2.495Zm20.5-.435c-.514-.139-1.031-.269-1.554-.386l.179-.791q.8.179,1.588.394Zm-17.415-.4L78.171.869q.8-.179,1.6-.322l.141.8q-.79.141-1.566.313Zm14.3-.3c-.524-.094-1.049-.175-1.579-.247l.107-.8q.812.109,1.615.251l-.143.8ZM81.5,1.1,81.389.3Q82.2.192,83.015.121l.07.808Q82.286,1,81.5,1.1ZM89.474.933c-.529-.047-1.059-.083-1.6-.107l.036-.81q.822.038,1.63.109l-.07.808ZM84.681.824l-.034-.81c.529-.023,1.063-.034,1.6-.034l.034.81C85.723.79,85.2.8,84.681.824Z" transform="translate(-48.103 0.02)" fill="#fff"/>
      <path id="Path_5420" data-name="Path 5420" d="M105.82,298.584c-.2-.181-.409-.362-.609-.548l.55-.6c.2.181.394.36.595.535l-.535.607Z" transform="translate(-92.027 -234.048)" fill="#fff"/>
      <path id="Path_5421" data-name="Path 5421" d="M45.777,193.732a12.21,12.21,0,0,1,1.381-3.712l-1.8.98-2.01-.4a12.281,12.281,0,0,1,2.427,3.133Z" transform="translate(-43.35 -149.52)" fill="#fff"/>
      <path id="Path_5422" data-name="Path 5422" d="M92.64,282.04l1,3.817-3.834-.936Z" transform="translate(-79.909 -221.93)" fill="#fff"/>
    </g>
  </g>
</svg>
