<svg xmlns="http://www.w3.org/2000/svg" width="976" height="200" viewBox="0 0 976 200">
  <g id="Group_3079" data-name="Group 3079" transform="translate(-89 -75)">
    <g id="Group_3078" data-name="Group 3078" transform="translate(-513 -299)">
      <path id="Path_5436" data-name="Path 5436" d="M166.307,198.544c-24.962-.41-46.47-9.086-64.176-26.2A83.417,83.417,0,0,1,77.3,125.762C72.5,98.03,79.728,73.381,98.72,52.179c13.67-15.258,30.986-24.625,51.341-28.294A96.154,96.154,0,0,1,173.269,22.8,91.474,91.474,0,0,1,222.3,40.624,109.51,109.51,0,0,1,235.1,52.155c1.183,1.182.871,1.878-.186,2.849a87.748,87.748,0,0,0-6.589,6.442c-1.928,2.182-3.171,2.381-5.352.041a72.612,72.612,0,0,0-38.74-22.279c-25.424-5.406-48.176.018-67.852,16.75a70.172,70.172,0,0,0-23.7,40.123c-5.009,23.888,1.724,44.64,17.634,62.958,8.721,10.04,19.935,16.645,32.422,21.039a69.221,69.221,0,0,0,30.109,3.633c19.394-1.983,36.151-9.572,49.575-23.625,2.793-2.925,2.847-2.884,5.778-.029,2.132,2.071,4.228,4.183,6.415,6.2,1.135,1.041,1.087,1.814.03,2.919-13.814,14.428-30.361,24.017-50.458,27.638a91.194,91.194,0,0,1-17.886,1.732Z" transform="translate(540.14 363.447)" fill="#ffffff" fill-rule="evenodd"/>
      <path id="Path_5437" data-name="Path 5437" d="M197.563,201.45c-19.674-.263-35.859-8.167-48.935-22.962-1.125-1.277-1-2,.139-3.137q11.291-11.288,22.436-22.718c1.163-1.193,1.909-1.27,3.059-.019q3.583,3.869,7.407,7.493c1.428,1.354,1.371,2.3-.025,3.657-3.8,3.708-7.445,7.6-11.262,11.311-1.4,1.36-1.226,1.97.341,3.015a48.8,48.8,0,0,0,52.955,1c3.229-1.976,3.217-2.1.55-4.8q-37.095-37.416-74.19-74.819c-3.128-3.156-3.084-3.124-.088-6.435C160.067,81.831,172.422,74.5,187.236,72.31c23.042-3.394,42.824,3.471,58.971,20.735,2,2.143,2.035,3.49-.19,5.646-7.262,7.025-14.321,14.275-21.342,21.55-1.542,1.6-2.477,2.13-4.146.128a79.7,79.7,0,0,0-6.933-7.057c-1.308-1.219-1.352-1.982-.032-3.266,4.045-3.926,7.9-8.052,11.951-11.978,1.384-1.341,1.637-2.047-.177-3.24a49.115,49.115,0,0,0-54.37-.2c-2.427,1.578-1.972,2.489-.265,4.215Q207.8,136.271,244.8,173.786c3.659,3.7,3.666,3.721.051,7.474a64.309,64.309,0,0,1-37.231,19.548,28.987,28.987,0,0,1-3.078.609c-2.319.09-4.645.032-6.971.032Z" transform="translate(508.163 337.134)" fill="#ffffff" fill-rule="evenodd"/>
      <g id="Group_3072" data-name="Group 3072" transform="translate(602 374)">
        <path id="Path_5438" data-name="Path 5438" d="M50.721,194.586c-.1-.727-.185-1.46-.271-2.192l2.181-.254c.081.721.173,1.442.265,2.158l-2.175.288Z" transform="translate(-46.354 -81.043)" fill="#6d6e73"/>
        <path id="Path_5439" data-name="Path 5439" d="M149.271,199.98q-2.246-.017-4.469-.133l.117-2.2c1.445.075,2.907.121,4.37.133Zm4.474-.064-.076-2.2q2.193-.078,4.364-.249l.175,2.191c-1.474.116-2.965.2-4.457.249Zm-13.4-.4q-2.237-.217-4.439-.526l.309-2.174c1.439.2,2.884.37,4.34.515Zm22.3-.3-.268-2.18q2.185-.269,4.323-.63l.373,2.168c-1.462.243-2.936.463-4.428.642Zm-31.152-.942c-1.468-.272-2.93-.578-4.375-.913l.5-2.139q2.124.494,4.282.89l-.408,2.162Zm39.966-.538L171,195.586c1.427-.306,2.849-.642,4.253-1.006l.559,2.122c-1.439.376-2.884.717-4.346,1.029Zm-48.676-1.48c-1.439-.4-2.866-.838-4.276-1.3l.693-2.087c1.381.451,2.779.873,4.183,1.266l-.6,2.116Zm57.316-.769-.658-2.1q2.1-.642,4.142-1.382l.752,2.064q-2.1.754-4.241,1.411Zm-65.8-2.012q-2.089-.789-4.142-1.671l.88-2.018q2.01.859,4.055,1.636l-.787,2.052Zm74.206-1-.845-2.035q2.019-.824,4-1.734l.932,1.995c-1.346.619-2.709,1.214-4.084,1.775Zm-82.415-2.521q-2.019-.971-3.973-2.029l1.055-1.931c1.282.688,2.575,1.353,3.892,1.983l-.967,1.977Zm90.5-1.208-1.02-1.954c1.293-.665,2.569-1.364,3.828-2.081l1.107,1.9Q198.574,187.724,196.59,188.747Zm-98.355-3.024q-1.914-1.145-3.775-2.37l1.223-1.833q1.826,1.2,3.694,2.324l-1.142,1.879Zm106.08-1.411-1.189-1.85c1.229-.78,2.441-1.584,3.624-2.411l1.276,1.8q-1.826,1.275-3.711,2.469Zm-113.526-3.5q-1.809-1.309-3.554-2.694l1.387-1.717q1.7,1.353,3.472,2.636Zm120.831-1.6-1.352-1.74q1.73-1.327,3.4-2.723l1.427,1.677Q213.395,177.858,211.621,179.213Zm6.828-5.718-1.5-1.613c1.072-.983,2.121-1.983,3.146-3.012l1.567,1.549q-1.573,1.57-3.216,3.081Zm6.292-6.3-1.637-1.48q1.468-1.6,2.866-3.278l1.7,1.4q-1.433,1.708-2.936,3.347Zm5.715-6.822-1.765-1.33c.88-1.156,1.736-2.324,2.569-3.515l1.818,1.249q-1.276,1.83-2.622,3.6Zm5.086-7.3-1.876-1.168q1.162-1.838,2.243-3.729l1.928,1.087C237.1,150.555,236.335,151.827,235.542,153.076Zm4.416-7.724-1.975-1c.664-1.289,1.293-2.59,1.9-3.914l2.016.908C241.281,142.7,240.629,144.034,239.959,145.352Zm3.705-8.088-2.051-.821q.813-2.012,1.544-4.07l2.092.728q-.743,2.107-1.579,4.163Zm2.965-8.395-2.121-.636q.629-2.073,1.165-4.18l2.144.538q-.551,2.159-1.194,4.272Zm2.2-8.6-2.167-.445q.437-2.116.781-4.267l2.191.347c-.239,1.463-.507,2.92-.8,4.359Zm1.41-8.753-2.2-.254q.253-2.142.4-4.319l2.208.156q-.157,2.22-.414,4.417Zm-200.63-4.614q-.149-2.2-.2-4.429l2.214-.052c.041,1.457.1,2.9.2,4.336l-2.208.15Zm201.265-4.232-2.214-.058c.023-.873.035-1.752.035-2.631,0-.572,0-1.139-.017-1.705l2.214-.04q.017.876.017,1.752,0,1.344-.035,2.688ZM51.6,98.084l-2.214-.04q.044-2.229.186-4.429l2.208.139Q51.645,95.9,51.6,98.084Zm196.9-4.145c-.087-1.445-.21-2.891-.361-4.319l2.2-.231q.236,2.194.367,4.423l-2.208.133ZM52.151,89.429l-2.2-.231q.245-2.211.577-4.4l2.191.33c-.216,1.422-.408,2.856-.559,4.3Zm195.433-4.111c-.216-1.434-.466-2.862-.746-4.272l2.173-.422q.428,2.168.763,4.371l-2.191.33ZM53.468,80.855,51.3,80.427c.291-1.457.612-2.9.967-4.33l2.15.526Q53.9,78.722,53.468,80.855ZM245.9,76.808c-.344-1.4-.722-2.8-1.124-4.191L246.9,72q.62,2.125,1.154,4.284L245.9,76.8ZM55.548,72.438l-2.121-.619c.419-1.422.868-2.833,1.357-4.226l2.092.717q-.708,2.047-1.323,4.134ZM243.46,68.483c-.466-1.37-.973-2.729-1.5-4.076l2.062-.8c.542,1.376,1.049,2.763,1.538,4.163l-2.1.711ZM58.385,64.217l-2.062-.8q.821-2.073,1.736-4.1l2.022.9q-.891,1.977-1.69,4.006Zm181.9-3.8q-.891-1.986-1.858-3.92l1.987-.977q.988,1.977,1.9,4.006l-2.027.9ZM61.945,56.279,59.964,55.3c.67-1.324,1.369-2.636,2.1-3.926L64,52.44c-.7,1.26-1.392,2.544-2.045,3.839ZM236.4,52.66c-.7-1.266-1.439-2.509-2.2-3.746l1.893-1.145c.775,1.255,1.526,2.532,2.249,3.821l-1.94,1.07ZM66.21,48.688l-1.888-1.156q1.18-1.891,2.435-3.723l1.829,1.237q-1.232,1.8-2.383,3.642Zm165.627-3.417q-1.223-1.8-2.528-3.538l1.777-1.312c.886,1.185,1.748,2.393,2.587,3.613l-1.835,1.231Zm-160.7-3.764-1.777-1.318q1.337-1.778,2.756-3.5l1.713,1.393q-1.39,1.682-2.7,3.417Zm155.5-3.2c-.921-1.122-1.864-2.226-2.831-3.3l1.655-1.457q1.477,1.656,2.9,3.376l-1.719,1.388ZM76.673,34.79l-1.655-1.463c.99-1.1,2.016-2.185,3.053-3.238l1.585,1.538c-1.02,1.035-2.016,2.087-2.983,3.168Zm144.153-2.96c-1.02-1.035-2.057-2.052-3.117-3.041l1.521-1.6c1.089,1.012,2.15,2.052,3.187,3.11l-1.585,1.532ZM82.785,28.586l-1.515-1.6q1.634-1.518,3.327-2.96L86.036,25.7c-1.107.942-2.2,1.908-3.257,2.891ZM214.464,25.88q-1.66-1.414-3.373-2.758l1.369-1.729c1.171.919,2.325,1.856,3.449,2.821ZM89.42,22.944l-1.369-1.729q1.757-1.37,3.583-2.654l1.282,1.792q-1.783,1.257-3.5,2.6ZM207.6,20.51c-1.189-.844-2.389-1.659-3.612-2.457l1.212-1.838q1.87,1.214,3.688,2.509L207.6,20.51Zm-111.073-2.6-1.206-1.844q1.87-1.205,3.8-2.33l1.119,1.9C98.987,16.364,97.746,17.122,96.528,17.908Zm103.744-2.151c-1.253-.734-2.528-1.445-3.816-2.128l1.043-1.943c1.317.7,2.616,1.422,3.9,2.18l-1.13,1.891ZM104.05,13.514l-1.037-1.943c1.311-.688,2.645-1.353,3.991-1.983l.95,1.983q-1.975.928-3.9,1.943Zm88.5-1.844c-1.317-.624-2.645-1.22-4-1.786l.868-2.023c1.381.578,2.738,1.191,4.084,1.827ZM111.932,9.8l-.862-2.023c1.363-.572,2.75-1.11,4.148-1.625l.769,2.064c-1.369.5-2.715,1.029-4.055,1.59Zm72.551-1.52q-2.045-.754-4.142-1.422l.682-2.093q2.141.685,4.236,1.457l-.775,2.058ZM120.118,6.8l-.676-2.093c1.416-.451,2.849-.867,4.288-1.255l.577,2.122Q122.192,6.14,120.118,6.8Zm56.046-1.179c-1.4-.376-2.82-.728-4.247-1.046l.489-2.145q2.185.486,4.34,1.07Zm-47.61-1.087-.484-2.145q2.176-.486,4.381-.873l.385,2.162q-2.159.382-4.282.85Zm39.081-.821c-1.433-.254-2.866-.474-4.317-.671l.291-2.18q2.22.295,4.416.682l-.39,2.162Zm-30.476-.694-.291-2.18q2.211-.286,4.445-.48l.192,2.191Q139.32,2.744,137.159,3.021Zm21.813-.457c-1.445-.127-2.9-.225-4.364-.289l.1-2.2q2.246.1,4.457.295l-.192,2.191Zm-13.1-.295-.093-2.2c1.445-.064,2.907-.093,4.375-.093l.093,2.2C148.718,2.177,147.29,2.206,145.869,2.269Z" transform="translate(-45.906 0.02)" fill="#6d6e73"/>
        <path id="Path_5440" data-name="Path 5440" d="M106.86,300.538c-.554-.49-1.108-.981-1.65-1.483l1.488-1.615c.531.49,1.067.975,1.61,1.448l-1.448,1.644Z" transform="translate(-69.523 -125.408)" fill="#6d6e73"/>
        <path id="Path_5441" data-name="Path 5441" d="M49.921,200.069a33.053,33.053,0,0,1,3.738-10.049l-4.869,2.654-5.44-1.079a33.245,33.245,0,0,1,6.571,8.48Z" transform="translate(-43.35 -80.139)" fill="#6d6e73"/>
        <path id="Path_5442" data-name="Path 5442" d="M97.471,282.04l2.717,10.332L89.81,289.84Z" transform="translate(-63.008 -118.892)" fill="#6d6e73"/>
      </g>
    </g>
    <g id="Group_3075" data-name="Group 3075" transform="translate(329 -249.33)">
      <g id="Group_3073" data-name="Group 3073" transform="translate(0 371.741)">
        <path id="Path_5443" data-name="Path 5443" d="M65.3,438.7l-6.814,16.562a50.271,50.271,0,0,1-16.9,3.086q-19.378,0-30.61-12.042Q0,434.622,0,415.126q0-21.25,12.7-34.236T46.632,367.92c6.965,0,12.531.624,16.73,1.872l-.877,20.171a62.983,62.983,0,0,0-8.736-6.982,20.989,20.989,0,0,0-10.777-2.749,22.2,22.2,0,0,0-18.906,9.563q-6.173,8.6-6.173,21c0,9.563,2.125,17.4,6.358,23.476q7.336,10.372,21.014,10.372,9.284,0,20.053-5.937Z" transform="translate(0 -367.903)" fill="#ffffff"/>
        <path id="Path_5444" data-name="Path 5444" d="M125.529,411q0,19.125-11.148,32.736-11.865,14.6-30.61,14.605-17.607,0-28.755-13.087Q44.39,432.861,44.39,415q0-19.808,11.333-33.09,12.042-13.99,31.589-13.981,17.607,0,28.317,13,9.917,12.118,9.917,30.088Zm-17.877,4.25a41.529,41.529,0,0,0-6.7-23.122q-7.665-11.814-19.834-11.823c-.826,0-2.091.084-3.795.27q-15.153,7.665-15.162,28.587a46.388,46.388,0,0,0,6.7,24.438q7.842,12.978,20.1,12.362l3.879-.169q14.8-9.891,14.808-30.526Z" transform="translate(30.475 -367.896)" fill="#ffffff"/>
        <path id="Path_5445" data-name="Path 5445" d="M221.212,456.489H196.959a82.964,82.964,0,0,0,3.457-24.539V401.66q0-8.6-2.125-12.312-3.01-5.136-11.232-5.144-7.792,0-17.962,6.982v46.6q0,7.008,3.457,18.687H148.3q3.441-8.247,3.457-23.477V403.769c0-6.561-.557-11.1-1.687-13.644q-2.732-5.945-11.333-5.937-7.159,0-18.316,6.814l.084,41.826q0,14.268,3.356,23.662H99.63a88.112,88.112,0,0,0,3.457-25.922v-29.9q0-19.378-3.457-30.88h20.795v16.73q10.372-12.042,11.789-13.273a23.36,23.36,0,0,1,15.6-5.313q17.1,0,20.66,19.294l12.767-13.56a24.45,24.45,0,0,1,16.224-5.717c8.4,0,14.116,3.474,17.2,10.44q3.112,6.982,3.1,21.233,0,39.288-.169,28.755a116.286,116.286,0,0,0,3.626,28.131Z" transform="translate(68.748 -367.896)" fill="#ffffff"/>
        <path id="Path_5446" data-name="Path 5446" d="M256.667,415.869q0,18.236-6.9,29.188-8.3,13.279-25.534,13.27-11.941,0-22.7-8.667v12.208a64.943,64.943,0,0,0,3.457,21.583H180.74a92.545,92.545,0,0,0,3.457-26.625V396.41a95.352,95.352,0,0,0-3.457-26.625h20.795v15.041q5.135-6.02,10.271-11.938A19.312,19.312,0,0,1,225.4,367.93q16.165,0,24.64,16.811,6.628,13.279,6.628,31.144Zm-17.877-3.541a35.85,35.85,0,0,0-4.756-18.548q-5.641-9.586-15.229-9.578-7.311,0-17.253,5.311v47.146q6.426,7.967,15.415,7.976,21.832,0,21.841-32.291Z" transform="translate(124.668 -367.896)" fill="#ffffff"/>
        <path id="Path_5447" data-name="Path 5447" d="M281.484,433.34q0,12.017-9.293,18.822-8.323,6.2-20.711,6.19-6.021,0-19.9-3.019V433.762q12.168,12.219,20.474,12.21a12,12,0,0,0,8.078-3,9.605,9.605,0,0,0,3.491-7.606q0-5.388-7.758-12.025c-9.478-7.96-14.285-12.042-14.47-12.278q-7.842-8.3-7.842-17.86,0-11.232,9.377-18.569A31.81,31.81,0,0,1,263.1,367.92a45.057,45.057,0,0,1,16.275,3.373v16.882q-9.082-7.868-15.971-7.876a13.5,13.5,0,0,0-8.112,2.479,8.717,8.717,0,0,0-3.879,7.336q0,5.844,7.758,12.548l14.47,12.379q7.842,8.3,7.859,18.3Z" transform="translate(159.705 -367.903)" fill="#ffffff"/>
        <path id="Path_5448" data-name="Path 5448" d="M333.718,406.592l-.169,8.854H284.977q3.795,29.194,26.934,29.194,8.829,0,19.783-4.773L325.15,455.8a70.321,70.321,0,0,1-16.545,2.547q-19.631,0-30.8-12.649-10.7-12.042-10.709-31.859,0-18.392,8.584-31.234,9.917-14.7,27.44-14.69,15.482,0,23.713,12.126,7.261,10.524,6.9,26.546Zm-14.5-6.088a20.947,20.947,0,0,0-4.132-13.779,15.534,15.534,0,0,0-25.787.961q-3.871,6.223-3.879,15.364h33.714l.084-2.547Z" transform="translate(184.223 -367.903)" fill="#ffffff"/>
        <path id="Path_5449" data-name="Path 5449" d="M388.936,483.452H364.785q3.365-6.45,3.356-20.96V441.887l-12.919,14.333a30.815,30.815,0,0,1-10.423,2.125q-15.533,0-24.1-11.77-7.589-10.522-7.589-26.541,0-26.1,16.376-39.626,15.229-12.469,41.775-12.478a136.591,136.591,0,0,1,17.692,1.416,75.118,75.118,0,0,0-3.356,20.707v61.934q0,19.906,3.356,31.5ZM368.141,436.39V381.807a47.993,47.993,0,0,0-10.22-1.5q-14.167,0-21.048,10.269-6,8.853-5.987,23.792,0,11.508,4.132,18.751,5.186,8.928,15.668,8.937,6.527,0,17.439-5.666Z" transform="translate(216.105 -367.896)" fill="#ffffff"/>
        <path id="Path_5450" data-name="Path 5450" d="M420.831,369.613l-3.626,18.839q-6.173-4.25-12.008-4.25c-3.9,0-9.832,1.939-17.472,5.835v40.527a95.079,95.079,0,0,0,3.457,25.922H366.93q3.441-12.472,3.457-21.672V400.477q0-17.962-3.457-30.712h20.795v15.668l13.509-15.044a33.724,33.724,0,0,1,11.553-2.479,20.668,20.668,0,0,1,8.028,1.686Z" transform="translate(253.054 -367.91)" fill="#ffffff"/>
      </g>
      <g id="Group_3074" data-name="Group 3074" transform="translate(685.555 362.33)">
        <path id="Path_5451" data-name="Path 5451" d="M437.972,407.194q8.045,0,15.3,8.669,2.985,3.542,2.985,9.647a16,16,0,0,1-4.351,11.384q-4.048-1.543-8.669-2.935v-1.687q5.085-1.923,5.076-8.635a10.93,10.93,0,0,0-1.332-5.464q-2.378-4.225-6.156-4.216a6.832,6.832,0,0,0-5.953,3.306,11.745,11.745,0,0,0-1.94,6.746,18.765,18.765,0,0,0,.472,4.031l-1.079.776-5.515-1.686a12.812,12.812,0,0,0-2.041-6.443c-1.417-2.243-3.188-3.373-5.3-3.373-4.132,0-6.257,2.412-6.409,7.252a10.789,10.789,0,0,0,2.968,7.691l-.523,1.332-7.421-1.855a21.451,21.451,0,0,1-2.277-9.7,14.425,14.425,0,0,1,2.479-8.281,8.868,8.868,0,0,1,7.589-4.014,11.344,11.344,0,0,1,6.527,2.108,12.744,12.744,0,0,1,4.115,4.874q2.985-9.562,11.4-9.563Z" transform="translate(-405.809 -331.553)" fill="#ffffff"/>
        <path id="Path_5452" data-name="Path 5452" d="M437,384.1a19.859,19.859,0,0,1,13.155,4.739,15.659,15.659,0,0,1,6.088,12.565,13.647,13.647,0,0,1-4.925,11.047c-3.289,2.732-7.691,4.115-13.205,4.115a33.846,33.846,0,0,1-19.547-6.324,34.8,34.8,0,0,1-12.75-15.533,14.148,14.148,0,0,1,1.467-3.441l1.72-3.188,1.518.725q.379,6.071,6.358,12.076t12.632,7.235c-2.108-2.209-3.339-3.542-3.677-4.014-1.67-2.159-2.513-4.115-2.513-5.852a13.994,13.994,0,0,1,3.812-10.187A13.124,13.124,0,0,1,437,384.117Zm3.862,7.033a8.985,8.985,0,0,0-6.814,2.935,8.846,8.846,0,0,0-2.665,6.358,7.8,7.8,0,0,0,8.4,8.264,7.365,7.365,0,0,0,6.122-3.1,10.623,10.623,0,0,0,2.159-6.662,8.094,8.094,0,0,0-1.923-5.633,6.706,6.706,0,0,0-5.279-2.142Z" transform="translate(-405.802 -347.384)" fill="#ffffff"/>
        <path id="Path_5453" data-name="Path 5453" d="M429.617,362.33q10.954,0,18.653,4.958,7.969,5.161,7.977,12.936,0,6.729-7.286,10.895a31.339,31.339,0,0,1-15.82,3.795q-11.131,0-19.125-5.211-8.2-5.287-8.2-12.936,0-7.033,6.51-10.777,6.249-3.668,17.287-3.66Zm2.243,7.37c-6.072,0-10.693,1-13.863,2.951-2.614,1.636-3.93,3.66-3.93,6.088q0,8.627,17.709,8.618,15.811,0,15.82-9.225,0-3.82-4.25-6.139c-2.833-1.552-6.662-2.31-11.468-2.31Z" transform="translate(-405.802 -362.33)" fill="#ffffff"/>
      </g>
    </g>
  </g>
</svg>
