<svg xmlns="http://www.w3.org/2000/svg" xmlns:xlink="http://www.w3.org/1999/xlink" width="77.786" height="67.694" viewBox="0 0 77.786 67.694">
  <defs>
    <radialGradient id="radial-gradient" cx="0.5" cy="0.5" r="5.206" gradientUnits="objectBoundingBox">
      <stop offset="0" stop-opacity="0.4"/>
      <stop offset="1" stop-color="#fff" stop-opacity="0"/>
    </radialGradient>
  </defs>
  <g id="Group_2229" data-name="Group 2229" transform="translate(-3.735 -192.807)">
    <ellipse id="Ellipse_53" data-name="Ellipse 53" cx="38.893" cy="2.651" rx="38.893" ry="2.651" transform="translate(3.735 255.199)" fill="url(#radial-gradient)"/>
    <path id="Exclusion_1" data-name="Exclusion 1" d="M-4676.79-370.693a2.555,2.555,0,0,1-.569-.065,2.4,2.4,0,0,1-1.776-1.783,2.411,2.411,0,0,1,.849-2.442,2.746,2.746,0,0,0,.98-2.152v-7.385a7.636,7.636,0,0,0-2.25-5.433,11.5,11.5,0,0,0-4.389-2.723,22.1,22.1,0,0,1-14.951-20.913,21.958,21.958,0,0,1,6.476-15.63,21.961,21.961,0,0,1,15.631-6.474c.52,0,1.048.018,1.571.054a22.179,22.179,0,0,1,20.46,20.256,21.936,21.936,0,0,1-3.667,14.094,22.178,22.178,0,0,1-4.874,5.2,22.025,22.025,0,0,1-6.33,3.407,11.535,11.535,0,0,0-4.4,2.725,7.633,7.633,0,0,0-2.25,5.433v7.385a2.721,2.721,0,0,0,.972,2.145,2.391,2.391,0,0,1,.921,1.892,2.409,2.409,0,0,1-2.405,2.409Zm.48-56.5a13.516,13.516,0,0,0-13.5,13.5,13.516,13.516,0,0,0,13.5,13.5,13.515,13.515,0,0,0,13.5-13.5,13.515,13.515,0,0,0-13.5-13.5Z" transform="translate(4719.415 629)" fill="#ef5350" stroke="rgba(0,0,0,0)" stroke-width="1"/>
  </g>
</svg>
