<svg xmlns="http://www.w3.org/2000/svg" width="18" height="22" viewBox="0 0 18 22">
  <path id="paper" d="M26.714,8H11.286A1.29,1.29,0,0,0,10,9.294V28.706A1.29,1.29,0,0,0,11.286,30H26.714A1.29,1.29,0,0,0,28,28.706V9.294A1.29,1.29,0,0,0,26.714,8ZM13.857,11.235h4.5a.647.647,0,0,1,0,1.294h-4.5a.647.647,0,0,1,0-1.294Zm7.714,14.235H13.857a.647.647,0,0,1,0-1.294h7.714a.647.647,0,0,1,0,1.294Zm2.571-3.882H13.857a.647.647,0,0,1,0-1.294H24.143a.647.647,0,0,1,0,1.294Zm0-3.882H13.857a.647.647,0,0,1,0-1.294H24.143a.647.647,0,0,1,0,1.294Z" transform="translate(-10 -8)" fill="#de5926"/>
</svg>
