<svg xmlns="http://www.w3.org/2000/svg" width="18" height="20" viewBox="0 0 18 20">
  <g id="settings" transform="translate(-25.66)">
    <path id="Path_5434" data-name="Path 5434" d="M26,15a2.5,2.5,0,0,0,3.415.918h0l.371-.214a7.483,7.483,0,0,0,2.374,1.37V17.5a2.5,2.5,0,0,0,5,0v-.427A7.483,7.483,0,0,0,39.535,15.7l.373.215a2.5,2.5,0,1,0,2.5-4.333h0l-.37-.213a7.582,7.582,0,0,0,0-2.742l.37-.213a2.5,2.5,0,1,0-2.5-4.333l-.371.214a7.484,7.484,0,0,0-2.376-1.367V2.5a2.5,2.5,0,0,0-5,0v.428A7.483,7.483,0,0,0,29.786,4.3l-.373-.216a2.5,2.5,0,1,0-2.5,4.333h0l.37.213a7.582,7.582,0,0,0,0,2.742l-.37.213A2.5,2.5,0,0,0,26,15ZM34.66,6.667A3.333,3.333,0,1,1,31.326,10,3.334,3.334,0,0,1,34.66,6.667Z" fill="#de5926"/>
  </g>
</svg>
