<svg xmlns="http://www.w3.org/2000/svg" width="18" height="18" viewBox="0 0 18 18">
  <g id="user_m" transform="translate(0)">
    <path id="Path_5454" data-name="Path 5454" d="M17.473,7.066h-.8a7.811,7.811,0,0,0-.88-2.124l.567-.567a.527.527,0,0,0,0-.746L14.37,1.642a.527.527,0,0,0-.746,0l-.567.567a7.811,7.811,0,0,0-2.124-.88v-.8A.527.527,0,0,0,10.406,0H7.594a.527.527,0,0,0-.527.527v.8a7.81,7.81,0,0,0-2.124.88l-.567-.567a.527.527,0,0,0-.746,0L1.642,3.63a.527.527,0,0,0,0,.746l.567.567a7.811,7.811,0,0,0-.88,2.124h-.8A.527.527,0,0,0,0,7.594v2.813a.527.527,0,0,0,.527.527h.8a7.811,7.811,0,0,0,.88,2.124l-.567.567a.527.527,0,0,0,0,.746L3.63,16.358a.527.527,0,0,0,.746,0l.567-.567a7.812,7.812,0,0,0,2.124.88v.8A.527.527,0,0,0,7.594,18h2.813a.527.527,0,0,0,.527-.527v-.8a7.812,7.812,0,0,0,2.124-.88l.567.567a.527.527,0,0,0,.746,0l1.989-1.989a.527.527,0,0,0,0-.746l-.567-.567a7.81,7.81,0,0,0,.88-2.124h.8A.527.527,0,0,0,18,10.406V7.594A.527.527,0,0,0,17.473,7.066ZM9,14.449A5.449,5.449,0,1,1,14.449,9,5.455,5.455,0,0,1,9,14.449Z" fill="#de5926"/>
    <circle id="Ellipse_80" data-name="Ellipse 80" cx="1.23" cy="1.23" r="1.23" transform="translate(7.77 7.066)" fill="#de5926"/>
    <path id="Path_5455" data-name="Path 5455" d="M193.364,301a2.288,2.288,0,0,0-2.282,2.172,4.387,4.387,0,0,0,4.565,0A2.288,2.288,0,0,0,193.364,301Z" transform="translate(-184.364 -290.418)" fill="#de5926"/>
    <path id="Path_5456" data-name="Path 5456" d="M135.395,131a4.392,4.392,0,0,0-3.222,7.38,3.355,3.355,0,0,1,1.628-2.053,2.285,2.285,0,1,1,3.187,0,3.355,3.355,0,0,1,1.628,2.053,4.392,4.392,0,0,0-3.222-7.38Z" transform="translate(-126.395 -126.395)" fill="#de5926"/>
  </g>
</svg>
