<svg xmlns="http://www.w3.org/2000/svg" width="40" height="35" viewBox="0 0 40 35">
  <path id="Icon_simple-microsoftexcel" data-name="Icon simple-microsoftexcel" d="M39.255,4.611h-13.4v2.21H29.8v3.5h-3.95v1.114H29.8v3.5h-3.95v1.145H29.8V19.39h-3.95v1.327H29.8v3.318h-3.95v1.326H29.8V28.7h-3.95v2.435h13.4c.212-.056.388-.279.53-.665A2.949,2.949,0,0,0,40,29.523V5.015c0-.19-.073-.3-.215-.345A2.045,2.045,0,0,0,39.255,4.611ZM37.517,28.7H31.088V25.361h6.428V28.7Zm0-4.661H31.088v-3.32h6.428Zm0-4.646H31.088v-3.3h6.428v3.3Zm0-4.456H31.088v-3.5h6.428v3.5h0Zm0-4.633H31.088V6.823h6.428V10.3ZM0,4.06V31.691l23.6,3.638v-35L0,4.072Zm13.988,20.9q-.135-.325-1.263-2.767c-.748-1.628-1.2-2.576-1.332-2.846h-.042L8.82,24.718l-3.383-.2L9.45,17.83,5.775,11.145l3.45-.162,2.28,5.23h.045l2.575-5.468,3.565-.2-4.245,7.234,4.375,7.38-3.832-.2Z" transform="translate(0 -0.329)" fill="#325a9c"/>
</svg>
