<svg xmlns="http://www.w3.org/2000/svg" width="14" height="10" viewBox="0 0 14 10">
  <path id="Icon_material-folder-shared" data-name="Icon material-folder-shared" d="M15.6,7.25H10L8.6,6H4.4A1.329,1.329,0,0,0,3.007,7.25L3,14.75A1.335,1.335,0,0,0,4.4,16H15.6A1.335,1.335,0,0,0,17,14.75V8.5A1.335,1.335,0,0,0,15.6,7.25ZM12.1,9.125a1.335,1.335,0,0,1,1.4,1.25,1.335,1.335,0,0,1-1.4,1.25,1.335,1.335,0,0,1-1.4-1.25A1.335,1.335,0,0,1,12.1,9.125Zm2.8,5H9.3V13.5c0-.831,1.869-1.25,2.8-1.25s2.8.419,2.8,1.25Z" transform="translate(-3 -6)" fill="#fff"/>
</svg>
