<svg xmlns="http://www.w3.org/2000/svg" width="18" height="17.989" viewBox="0 0 18 17.989">
  <g id="home" transform="translate(0 -0.16)">
    <path id="Path_5328" data-name="Path 5328" d="M194.25,319.841a2.25,2.25,0,0,0-2.25,2.25v4.5h4.5v-4.5A2.25,2.25,0,0,0,194.25,319.841Z" transform="translate(-185.25 -308.442)" fill="#fafafa"/>
    <g id="Group_2970" data-name="Group 2970" transform="translate(0 0.16)">
      <path id="Path_5329" data-name="Path 5329" d="M12.75,13.649v4.5h3A2.25,2.25,0,0,0,18,15.9V9.058a1.5,1.5,0,0,0-.422-1.044L11.2,1.124A3,3,0,0,0,6.965.957q-.087.08-.167.167L.436,8.012A1.5,1.5,0,0,0,0,9.069V15.9a2.25,2.25,0,0,0,2.25,2.25h3v-4.5a3.75,3.75,0,1,1,7.5,0Z" transform="translate(0 -0.16)" fill="#fafafa"/>
      <path id="Path_5330" data-name="Path 5330" d="M194.25,319.841a2.25,2.25,0,0,0-2.25,2.25v4.5h4.5v-4.5A2.25,2.25,0,0,0,194.25,319.841Z" transform="translate(-185.25 -308.602)" fill="#fafafa"/>
    </g>
  </g>
</svg>
