<svg xmlns="http://www.w3.org/2000/svg" width="10" height="12" viewBox="0 0 10 12">
  <g id="Icon_ionic-ios-trash" data-name="Icon ionic-ios-trash" transform="translate(-8.297 -4.5)">
    <path id="Path_5468" data-name="Path 5468" d="M9.359,9l.847,9.033a.988.988,0,0,0,1.051.91h5.06a.988.988,0,0,0,1.051-.91L18.2,9Zm2.21,8.234-.24-7.24h.664l.248,7.24Zm2.523,0h-.646V9.994h.646Zm1.877,0H15.3l.244-7.24h.664Z" transform="translate(-0.471 -2.443)" fill="#fff"/>
    <path id="Path_5469" data-name="Path 5469" d="M17.21,5.37h-1.3l-.953-.715a.809.809,0,0,0-.478-.155H12.127a.822.822,0,0,0-.486.155l-.953.715h-1.3c-.638,0-1.087.261-1.087.808h10C18.3,5.631,17.848,5.37,17.21,5.37Z" transform="translate(0)" fill="#fff"/>
  </g>
</svg>
