<svg xmlns="http://www.w3.org/2000/svg" width="14" height="14" viewBox="0 0 14 14">
  <g id="Icon_ionic-ios-timer" data-name="Icon ionic-ios-timer" transform="translate(-3.938 -3.938)">
    <path id="Path_5466" data-name="Path 5466" d="M10.939,17.937A7,7,0,0,1,6.08,5.9a.562.562,0,1,1,.781.808A5.876,5.876,0,1,0,11.5,5.089V7.28a.564.564,0,0,1-1.127,0V4.5a.563.563,0,0,1,.564-.563,7,7,0,0,1,0,14Z" transform="translate(0 0)" fill="#fff"/>
    <path id="Path_5467" data-name="Path 5467" d="M11.743,11.31l3.078,2.212a.931.931,0,0,1-1.083,1.516.9.9,0,0,1-.217-.217L11.31,11.743a.31.31,0,0,1,.433-.433Z" transform="translate(-3.473 -3.474)" fill="#fff"/>
  </g>
</svg>
