<svg xmlns="http://www.w3.org/2000/svg" width="26" height="20" viewBox="0 0 26 20">
  <path id="Icon_map-lawyer" data-name="Icon map-lawyer" d="M.153,15.386a3.342,3.342,0,0,0,3.329,2.882,3.342,3.342,0,0,0,3.329-2.882Zm18.141,6.667a.509.509,0,0,1-.151.363.524.524,0,0,1-.368.151h-9.7a.512.512,0,1,1,0-1.024h9.7A.514.514,0,0,1,18.295,22.053ZM7.611,22.83H18.238v1.481H7.611Zm11.577-7.444a3.362,3.362,0,0,0,6.657,0Zm6.473-1.03-2.726-3.7h1.458a.638.638,0,1,0,0-1.276H16.672a3.81,3.81,0,0,0-2.93-2.427v-2a.641.641,0,0,0-.647-.639l-.06.007-.06-.007a.649.649,0,0,0-.458.187.632.632,0,0,0-.188.452v2A3.808,3.808,0,0,0,9.4,9.374H1.676a.638.638,0,1,0,0,1.276H3.067l-2.727,3.7H0v.684H6.967v-.684H6.625L3.9,10.652h6.328a2.668,2.668,0,0,1,.038-.423.6.6,0,0,0,.037-.2,2.745,2.745,0,0,1,2.025-2.017V15.04H12.3A7.726,7.726,0,0,1,9.08,21.282h7.911a7.735,7.735,0,0,1-3.223-6.242h-.025V8.015a2.745,2.745,0,0,1,2.025,2.017.64.64,0,0,0,.039.2,2.805,2.805,0,0,1,.034.423H22.1l-2.727,3.7h-.34v.684H26v-.684Zm-22.456,0H1.03L3.206,11.4v2.957Zm.557,0V11.4l2.176,2.957H3.763Zm18.477,0H20.062L22.239,11.4Zm.554,0V11.4l2.179,2.957ZM4.129,8.484a.646.646,0,1,1-.645-.639.642.642,0,0,1,.645.639ZM23.163,8.45a.639.639,0,0,1-.646.635A.646.646,0,0,1,22.06,8.9a.629.629,0,0,1-.188-.451.635.635,0,0,1,.315-.573.654.654,0,0,1,.661,0A.635.635,0,0,1,23.163,8.45Z" transform="translate(0 -4.311)" fill="#fff"/>
</svg>
