<svg xmlns="http://www.w3.org/2000/svg" width="30" height="25" viewBox="0 0 30 25">
  <g id="Icon_ionic-ios-options" data-name="Icon ionic-ios-options" transform="translate(-3.375 -5.625)">
    <path id="Path_5490" data-name="Path 5490" d="M21.5,26.438a2.919,2.919,0,0,1,5.293,0h5.43a1.143,1.143,0,0,1,1.154,1.125h0a1.143,1.143,0,0,1-1.154,1.125h-5.43a2.919,2.919,0,0,1-5.293,0H4.529a1.143,1.143,0,0,1-1.154-1.125h0a1.143,1.143,0,0,1,1.154-1.125Z" transform="translate(0 0.25)" fill="#2680eb"/>
    <path id="Path_5491" data-name="Path 5491" d="M9.959,16.875a2.919,2.919,0,0,1,5.293,0H32.221A1.143,1.143,0,0,1,33.375,18h0a1.143,1.143,0,0,1-1.154,1.125H15.252a2.919,2.919,0,0,1-5.293,0H4.529A1.143,1.143,0,0,1,3.375,18h0a1.143,1.143,0,0,1,1.154-1.125Z" transform="translate(0 0.125)" fill="#2680eb"/>
    <path id="Path_5492" data-name="Path 5492" d="M21.5,7.313a2.919,2.919,0,0,1,5.293,0h5.43a1.143,1.143,0,0,1,1.154,1.125h0a1.143,1.143,0,0,1-1.154,1.125h-5.43a2.919,2.919,0,0,1-5.293,0H4.529A1.143,1.143,0,0,1,3.375,8.438h0A1.143,1.143,0,0,1,4.529,7.313Z" transform="translate(0)" fill="#2680eb"/>
  </g>
</svg>
