<svg xmlns="http://www.w3.org/2000/svg" width="18" height="21.857" viewBox="0 0 18 21.857">
  <path id="paper" d="M26.714,8H11.286A1.286,1.286,0,0,0,10,9.286V28.571a1.286,1.286,0,0,0,1.286,1.286H26.714A1.286,1.286,0,0,0,28,28.571V9.286A1.286,1.286,0,0,0,26.714,8ZM13.857,11.214h4.5a.643.643,0,0,1,0,1.286h-4.5a.643.643,0,1,1,0-1.286Zm7.714,14.143H13.857a.643.643,0,1,1,0-1.286h7.714a.643.643,0,0,1,0,1.286ZM24.143,21.5H13.857a.643.643,0,1,1,0-1.286H24.143a.643.643,0,0,1,0,1.286Zm0-3.857H13.857a.643.643,0,1,1,0-1.286H24.143a.643.643,0,0,1,0,1.286Z" transform="translate(-10 -8)" fill="#fff"/>
</svg>
