<svg xmlns="http://www.w3.org/2000/svg" width="25.403" height="23" viewBox="0 0 25.403 23">
  <g id="password" transform="translate(-5 -7.37)">
    <path id="Path_5319" data-name="Path 5319" d="M28.62,19.721H23.107V14.529a1.214,1.214,0,0,0-1.214-1.214H14.7V11.389a3,3,0,0,1,6.005,0,.508.508,0,0,0,1.016,0,4.019,4.019,0,0,0-8.038,0v1.926H13.51A1.214,1.214,0,0,0,12.3,14.529v5.192H6.783A1.786,1.786,0,0,0,5,21.5v7.082A1.786,1.786,0,0,0,6.783,30.37H28.62A1.786,1.786,0,0,0,30.4,28.587V21.5a1.786,1.786,0,0,0-1.783-1.783ZM13.312,14.529a.2.2,0,0,1,.2-.2h8.383a.2.2,0,0,1,.2.2v5.944a.2.2,0,0,1-.2.2H13.51a.2.2,0,0,1-.2-.2ZM29.387,28.587a.77.77,0,0,1-.767.767H6.783a.77.77,0,0,1-.767-.767V21.5a.77.77,0,0,1,.767-.767h5.543a1.215,1.215,0,0,0,1.184.95h8.383a1.215,1.215,0,0,0,1.184-.95H28.62a.77.77,0,0,1,.767.767Z" fill="#ccc"/>
    <path id="Path_5320" data-name="Path 5320" d="M15.379,39.549H14.338l.518-.9a.51.51,0,0,0-.884-.508l-.518.9-.518-.9a.51.51,0,0,0-.884.508l.518.9H11.528a.508.508,0,1,0,0,1.016H12.57l-.518.9a.51.51,0,0,0,.884.508l.518-.9.518.9a.51.51,0,0,0,.884-.508l-.518-.9h1.042a.508.508,0,1,0,0-1.016Z" transform="translate(-2.961 -15.011)" fill="#ccc"/>
    <path id="Path_5321" data-name="Path 5321" d="M29.564,39.549H28.523l.518-.9a.51.51,0,0,0-.884-.508l-.513.9-.518-.9a.51.51,0,0,0-.884.508l.518.9H25.718a.508.508,0,1,0,0,1.016H26.76l-.518.9a.51.51,0,0,0,.884.508l.518-.9.518.9a.51.51,0,1,0,.884-.508l-.518-.9h1.042a.508.508,0,1,0-.005-1.016Z" transform="translate(-9.942 -15.011)" fill="#ccc"/>
    <path id="Path_5322" data-name="Path 5322" d="M43.749,39.549H42.707l.518-.9a.51.51,0,0,0-.884-.508l-.518.9-.518-.9a.51.51,0,0,0-.884.508l.518.9H39.908a.508.508,0,1,0,0,1.016H40.95l-.518.9a.51.51,0,0,0,.884.508l.518-.9.518.9a.51.51,0,0,0,.884-.508l-.518-.9h1.042a.51.51,0,0,0,.508-.508A.518.518,0,0,0,43.749,39.549Z" transform="translate(-16.923 -15.011)" fill="#ccc"/>
  </g>
</svg>
