<svg xmlns="http://www.w3.org/2000/svg" width="20" height="26.047" viewBox="0 0 20 26.047">
  <g id="pdf" transform="translate(-6.5)">
    <path id="Path_5303" data-name="Path 5303" d="M20.679,0H7.18C6.8,0,6.5.3,6.5.9V25.581a.7.7,0,0,0,.68.465H25.82a.7.7,0,0,0,.68-.465V6.036c0-.324-.043-.428-.12-.5L20.968.12A.411.411,0,0,0,20.679,0Z" transform="translate(0 0)" fill="#e9e9e0"/>
    <path id="Path_5304" data-name="Path 5304" d="M37.5.151V5.662h5.511Z" transform="translate(-16.581 -0.081)" fill="#d9d7ca"/>
    <path id="Path_5305" data-name="Path 5305" d="M18.393,19.195h0a.747.747,0,0,1-.45-.152A1.115,1.115,0,0,1,17.425,18c.085-.757,1.021-1.55,2.784-2.357a31.222,31.222,0,0,0,1.762-5c-.464-1.01-.915-2.321-.587-3.09a.892.892,0,0,1,.527-.565,2.283,2.283,0,0,1,.473-.08c.234,0,.44.3.587.488s.448.546-.173,3.164a14.862,14.862,0,0,0,2.367,3.517,9.049,9.049,0,0,1,1.562-.167c.728,0,1.17.17,1.35.52a.941.941,0,0,1-.181,1,1.236,1.236,0,0,1-1.033.554A3.092,3.092,0,0,1,24.9,14.926,22.286,22.286,0,0,0,20.8,16.238a13.2,13.2,0,0,1-1.108,1.977C19.211,18.883,18.8,19.195,18.393,19.195Zm1.238-2.384c-.994.559-1.4,1.018-1.428,1.276,0,.043-.017.155.2.322C18.473,18.387,18.877,18.2,19.631,16.81Zm6.343-2.066c.379.292.472.439.72.439a.7.7,0,0,0,.563-.205.736.736,0,0,0,.107-.193c-.057-.03-.133-.092-.547-.092A6.8,6.8,0,0,0,25.974,14.744ZM22.5,11.683A33.159,33.159,0,0,1,21.256,15.2a23.24,23.24,0,0,1,3.021-.94A15.921,15.921,0,0,1,22.5,11.683Zm-.282-3.936a1.115,1.115,0,0,0,.045,1.5C22.7,8.259,22.237,7.741,22.217,7.747Z" transform="translate(-5.84 -3.695)" fill="#325a9c"/>
    <path id="Path_5306" data-name="Path 5306" d="M25.82,46.907H7.18a.68.68,0,0,1-.68-.68V39h20v7.227A.68.68,0,0,1,25.82,46.907Z" transform="translate(0 -20.86)" fill="#325a9c"/>
    <g id="Group_2614" data-name="Group 2614" transform="translate(10.8 19.965)">
      <path id="Path_5307" data-name="Path 5307" d="M16.507,47.611h-.763V42.924h1.348a1.892,1.892,0,0,1,.591.1,1.608,1.608,0,0,1,.525.286,1.494,1.494,0,0,1,.375.461,1.277,1.277,0,0,1,.143.607,1.662,1.662,0,0,1-.121.646,1.349,1.349,0,0,1-.337.487,1.519,1.519,0,0,1-.521.305,2.006,2.006,0,0,1-.674.108h-.566v1.692Zm0-4.108v1.857h.7a.831.831,0,0,0,.277-.048.7.7,0,0,0,.251-.156.762.762,0,0,0,.184-.3,1.43,1.43,0,0,0,.07-.48,1.3,1.3,0,0,0-.032-.264.762.762,0,0,0-.13-.286.771.771,0,0,0-.277-.229,1.028,1.028,0,0,0-.471-.092h-.572Z" transform="translate(-15.744 -42.924)" fill="#fff"/>
      <path id="Path_5308" data-name="Path 5308" d="M27.868,45.137a3.443,3.443,0,0,1-.124.989,2.458,2.458,0,0,1-.315.687,1.618,1.618,0,0,1-.429.436,2.153,2.153,0,0,1-.461.239,1.9,1.9,0,0,1-.407.1,2.712,2.712,0,0,1-.273.021H24.084V42.924H25.5a2.682,2.682,0,0,1,1.04.187,2.158,2.158,0,0,1,.744.5,2.049,2.049,0,0,1,.442.709A2.347,2.347,0,0,1,27.868,45.137ZM25.6,47.051a1.263,1.263,0,0,0,1.119-.5,2.517,2.517,0,0,0,.343-1.437,2.434,2.434,0,0,0-.07-.579,1.238,1.238,0,0,0-.27-.518,1.426,1.426,0,0,0-.544-.375,2.341,2.341,0,0,0-.89-.143h-.445v3.548H25.6Z" transform="translate(-20.205 -42.924)" fill="#fff"/>
      <path id="Path_5309" data-name="Path 5309" d="M35.374,43.5v1.475h1.959V45.5H35.374v2.111H34.6V42.924h2.931V43.5Z" transform="translate(-25.829 -42.924)" fill="#fff"/>
    </g>
  </g>
</svg>
