<svg xmlns="http://www.w3.org/2000/svg" width="27" height="35" viewBox="0 0 27 35">
  <path id="Icon_awesome-file-pdf" data-name="Icon awesome-file-pdf" d="M12.79,17.507c-.352-1.094-.345-3.206-.141-3.206C13.24,14.3,13.184,16.823,12.79,17.507Zm-.12,3.227a31.123,31.123,0,0,1-2,4.286,26.39,26.39,0,0,1,4.423-1.5A8.927,8.927,0,0,1,12.67,20.733ZM6.054,29.265c0,.055.928-.369,2.454-2.748A9.536,9.536,0,0,0,6.054,29.265ZM17.438,10.937H27V33.359A1.661,1.661,0,0,1,25.313,35H1.688A1.661,1.661,0,0,1,0,33.359V1.641A1.661,1.661,0,0,1,1.688,0H15.75V9.3A1.669,1.669,0,0,0,17.438,10.937Zm-.562,11.744a6.9,6.9,0,0,1-3-3.678c.316-1.265.816-3.186.436-4.389a1.774,1.774,0,0,0-3.361-.465c-.352,1.251-.028,3.015.57,5.264a63.417,63.417,0,0,1-2.869,5.865c-.007,0-.007.007-.014.007-1.905.95-5.175,3.042-3.832,4.648a2.213,2.213,0,0,0,1.512.684c1.259,0,2.51-1.23,4.3-4.225a40.954,40.954,0,0,1,5.555-1.586,10.881,10.881,0,0,0,4.5,1.333,1.765,1.765,0,0,0,1.385-2.967C21.073,22.244,18.232,22.511,16.875,22.682Zm9.633-15.5L19.617.479A1.711,1.711,0,0,0,18.422,0H18V8.75h9V8.333A1.613,1.613,0,0,0,26.508,7.178ZM21.3,24.63c.288-.185-.176-.813-3.009-.615C20.9,25.095,21.3,24.63,21.3,24.63Z" fill="#325a9c"/>
</svg>
