<svg xmlns="http://www.w3.org/2000/svg" width="18" height="24" viewBox="0 0 18 24">
  <g id="Group_3964" data-name="Group 3964" transform="translate(-9.65 -1.59)">
    <path id="Path_5530" data-name="Path 5530" d="M25.557,3.072l-.022.033H13.225a2.039,2.039,0,0,0-2.033,2.037v18.3l-.063.089A1.48,1.48,0,0,1,9.65,22.045V3.071A1.48,1.48,0,0,1,11.129,1.59H24.078a1.48,1.48,0,0,1,1.479,1.481Z" transform="translate(0)" fill="#de5926"/>
    <path id="Path_5531" data-name="Path 5531" d="M29.748,7.18H16.8A1.48,1.48,0,0,0,15.32,8.661V27.635A1.48,1.48,0,0,0,16.8,29.116H29.748a1.48,1.48,0,0,0,1.479-1.481V8.661A1.48,1.48,0,0,0,29.748,7.18Zm-1.22,9.1v6.126a.37.37,0,0,1-.37.37H26.713a.37.37,0,0,1-.37-.37V16.283a.37.37,0,0,1,.37-.37h1.445A.37.37,0,0,1,28.528,16.283Zm-2.355-3.622a.857.857,0,1,1,.225.578l-1.737.774a.5.5,0,0,1,0,.074.854.854,0,0,1-.85.856.815.815,0,0,1-.355-.078l-1.135,1.207a.823.823,0,0,1,.1.393.846.846,0,0,1-1.519.522l-1.516.522a.852.852,0,1,1-.85-.856.84.84,0,0,1,.665.333l1.516-.522a.855.855,0,0,1,.854-.856.8.8,0,0,1,.351.078l1.135-1.207a.832.832,0,0,1-.1-.393.853.853,0,0,1,.854-.856.837.837,0,0,1,.621.274l1.741-.774A.45.45,0,0,1,26.173,12.661Zm-.384,5.193v4.555a.37.37,0,0,1-.37.37H23.978a.37.37,0,0,1-.37-.37V17.854a.37.37,0,0,1,.37-.37h1.442A.37.37,0,0,1,25.789,17.854Zm-2.736,1.57v2.985a.37.37,0,0,1-.37.37H21.238a.37.37,0,0,1-.37-.37V19.424a.37.37,0,0,1,.37-.37h1.445A.37.37,0,0,1,23.053,19.424Zm-2.739,1.57v1.415a.37.37,0,0,1-.37.37H18.5a.37.37,0,0,1-.37-.37V20.994a.37.37,0,0,1,.37-.37h1.445A.37.37,0,0,1,20.314,20.994ZM17.868,9.563h5.944a.278.278,0,0,1,0,.556H17.868a.278.278,0,0,1,0-.556Zm0,1.4h5.944a.278.278,0,0,1,0,.556H17.868a.278.278,0,0,1,0-.556Zm0,13.592h1.968a.278.278,0,0,1,0,.556H17.868a.278.278,0,0,1,0-.556Zm8.174,2.174H17.868a.278.278,0,0,1,0-.556h8.174a.278.278,0,0,1,0,.556Zm2.636,0H27.444a.278.278,0,0,1,0-.556h1.234a.278.278,0,0,1,0,.556Zm0-1.619H21.2a.278.278,0,0,1,0-.556h7.481a.278.278,0,0,1,0,.556Z" transform="translate(-3.577 -3.526)" fill="#de5926"/>
  </g>
</svg>
