<svg xmlns="http://www.w3.org/2000/svg" width="18" height="18" viewBox="0 0 18 18">
  <g id="Group_3963" data-name="Group 3963" transform="translate(0 -0.009)">
    <path id="Path_5526" data-name="Path 5526" d="M37.309,118.365H41.14a2.287,2.287,0,0,1,1.422.494.5.5,0,0,0,.307.107h3.5a.484.484,0,0,0,.3-.1,2.3,2.3,0,0,1,1.428-.5h3.831a.3.3,0,0,0,.3-.3V109.51a1.5,1.5,0,0,0-1.5-1.5h-.187a.3.3,0,0,0-.3.3v7.476a1.529,1.529,0,0,1-1.528,1.529H42.333a.9.9,0,0,1-.636-.264l-2.4-2.4a.925.925,0,0,1-.253-.5c-.015-.087-.011.159-.011-5.84a.3.3,0,0,0-.3-.3h-.225a1.5,1.5,0,0,0-1.5,1.5v8.555A.3.3,0,0,0,37.309,118.365Z" transform="translate(-35.62 -103.954)" fill="#de5926"/>
    <path id="Path_5527" data-name="Path 5527" d="M17.244,400.009H12.481a1.7,1.7,0,0,0-1.055.368,1.086,1.086,0,0,1-.675.232h-3.5a1.1,1.1,0,0,1-.681-.238,1.69,1.69,0,0,0-1.048-.363H.756a.751.751,0,0,0-.726.959,2.636,2.636,0,0,0,2.651,2.043H15.319a2.636,2.636,0,0,0,2.651-2.043A.751.751,0,0,0,17.244,400.009Z" transform="translate(0 -385.002)" fill="#de5926"/>
    <path id="Path_5528" data-name="Path 5528" d="M117.488,276.008a.15.15,0,0,0-.106.256l1.713,1.713a.15.15,0,0,0,.256-.106v-1.656a.208.208,0,0,0-.207-.207h-1.656Z" transform="translate(-112.938 -265.65)" fill="#de5926"/>
    <path id="Path_5529" data-name="Path 5529" d="M116.089.009h-8.152a.929.929,0,0,0-.928.929V9.465a.3.3,0,0,0,.3.3H109.2a.809.809,0,0,1,.807.807v1.894a.3.3,0,0,0,.3.3h5.781a.929.929,0,0,0,.928-.929V.938a.929.929,0,0,0-.928-.929Zm-4.078,1.1A1.034,1.034,0,0,1,113.1,2.125a1.054,1.054,0,0,1-.5.943c-.186.148-.269.222-.269.416a.3.3,0,1,1-.6,0,1.053,1.053,0,0,1,.5-.887c.2-.158.279-.231.271-.449a.467.467,0,0,0-.934.018.3.3,0,1,1-.6,0A1.034,1.034,0,0,1,112.011,1.1Zm.321,3.257a.3.3,0,1,1-.241-.294A.3.3,0,0,1,112.332,4.362Zm2.1,6.154h-2.849a.3.3,0,0,1,0-.6h2.849a.3.3,0,0,1,0,.6Zm0-2.251h-4.873a.3.3,0,0,1,0-.6h4.873a.3.3,0,0,1,0,.6Zm0-2.251h-4.873a.3.3,0,0,1,0-.6h4.873a.3.3,0,0,1,0,.6Z" transform="translate(-102.994)" fill="#de5926"/>
  </g>
</svg>
