<svg xmlns="http://www.w3.org/2000/svg" width="18" height="20.005" viewBox="0 0 18 20.005">
  <g id="settings" transform="translate(-25.66)">
    <path id="Path_5434" data-name="Path 5434" d="M26,15a2.5,2.5,0,0,0,3.415.918h0l.371-.214a7.483,7.483,0,0,0,2.374,1.37V17.5a2.5,2.5,0,0,0,5,0v-.428A7.482,7.482,0,0,0,39.535,15.7l.373.215a2.5,2.5,0,0,0,2.5-4.334h0l-.37-.213a7.586,7.586,0,0,0,0-2.742l.37-.213a2.5,2.5,0,1,0-2.5-4.334l-.371.214a7.483,7.483,0,0,0-2.376-1.368V2.5a2.5,2.5,0,0,0-5,0v.428A7.482,7.482,0,0,0,29.786,4.3l-.373-.216a2.5,2.5,0,1,0-2.5,4.334h0l.37.213a7.586,7.586,0,0,0,0,2.742l-.37.213A2.506,2.506,0,0,0,26,15ZM34.66,6.668A3.334,3.334,0,1,1,31.326,10,3.334,3.334,0,0,1,34.66,6.668Z" fill="#fff"/>
  </g>
</svg>
